<?xml version="1.0" encoding="utf-8"?>
<!-- Generator: Adobe Illustrator 28.0.0, SVG Export Plug-In . SVG Version: 6.00 Build 0)  -->
<svg version="1.1" id="Layer_1" xmlns="http://www.w3.org/2000/svg" xmlns:xlink="http://www.w3.org/1999/xlink" x="0px" y="0px"
	 viewBox="0 0 82.5 42" style="enable-background:new 0 0 82.5 42;" xml:space="preserve">
<style type="text/css">
	.st0{clip-path:url(#SVGID_00000007424620585164256060000005256863864052479404_);fill:#B8BADD;}
	
		.st1{clip-path:url(#SVGID_00000007424620585164256060000005256863864052479404_);fill:none;stroke:#231F20;stroke-width:3.266;stroke-linecap:round;stroke-linejoin:round;stroke-miterlimit:10;}
	.st2{clip-path:url(#SVGID_00000007424620585164256060000005256863864052479404_);fill:#FDE0CD;}
	
		.st3{clip-path:url(#SVGID_00000007424620585164256060000005256863864052479404_);fill:none;stroke:#231F20;stroke-width:0.785;stroke-linecap:round;stroke-linejoin:round;stroke-miterlimit:10;}
	.st4{clip-path:url(#SVGID_00000007424620585164256060000005256863864052479404_);fill:#231F20;}
	.st5{clip-path:url(#SVGID_00000007424620585164256060000005256863864052479404_);fill:#83C455;}
	
		.st6{clip-path:url(#SVGID_00000007424620585164256060000005256863864052479404_);fill:none;stroke:#231F20;stroke-width:0.393;stroke-linecap:round;stroke-linejoin:round;stroke-miterlimit:10;}
	.st7{clip-path:url(#SVGID_00000007424620585164256060000005256863864052479404_);fill:#67B350;}
	
		.st8{clip-path:url(#SVGID_00000007424620585164256060000005256863864052479404_);fill:none;stroke:#231F20;stroke-width:0.526;stroke-linecap:round;stroke-linejoin:round;stroke-miterlimit:10;}
	.st9{clip-path:url(#SVGID_00000007424620585164256060000005256863864052479404_);fill:#A6CE38;}
	
		.st10{clip-path:url(#SVGID_00000007424620585164256060000005256863864052479404_);fill:none;stroke:#111517;stroke-width:0.526;stroke-miterlimit:10;}
</style>
<g>
	<defs>
		<rect id="SVGID_1_" x="-24.6" y="0.15" width="137.19" height="40.24"/>
	</defs>
	<clipPath id="SVGID_00000093174781446991488880000011140084546234625959_">
		<use xlink:href="#SVGID_1_"  style="overflow:visible;"/>
	</clipPath>
	<path style="clip-path:url(#SVGID_00000093174781446991488880000011140084546234625959_);fill:#B8BADD;" d="M62.05-16.59h48.39
		v-135.77c0-34.22-29.75-61.96-66.44-61.96c-36.69,0-66.44,27.74-66.44,61.96v135.77H19.4"/>
	
		<path style="clip-path:url(#SVGID_00000093174781446991488880000011140084546234625959_);fill:none;stroke:#231F20;stroke-width:3.266;stroke-linecap:round;stroke-linejoin:round;stroke-miterlimit:10;" d="
		M62.05-16.59h48.39v-135.77c0-34.22-29.75-61.96-66.44-61.96c-36.69,0-66.44,27.74-66.44,61.96v135.77H19.4"/>
	<path style="clip-path:url(#SVGID_00000093174781446991488880000011140084546234625959_);fill:#FDE0CD;" d="M74.4-11.43
		c0.95,2.71,1.37,3.97,1.37,3.97L48.71-7.32H48.7l-8.94,0.05l-29.2-0.2c-0.25,0-0.4-0.29-0.25-0.49c0.73-1.02,2.47-3.18,2.73-3.54
		c0.02-0.04,0.04-0.07,0.06-0.1c0.25-0.46,2.03-3.74,2.21-4.08c0.01-0.02,0.02-0.04,0.03-0.06c0.12-0.25,0.83-1.84,1.51-3.35
		c0.01-0.03,0.02-0.06,0.04-0.08c0.65-1.44,1.25-2.78,1.25-2.78s0.83-2.92,1.08-3.8c0.02-0.08,0.05-0.17,0.07-0.25
		c0.11-0.45,1.9-7.96,2.1-8.78c0.01-0.06,0.02-0.13,0.04-0.19c0.15-1,1.22-8.27,1.23-8.41c0.02-0.14,0.64-8.74,0.69-9.55
		c0.01-0.04,0.01-0.07,0.01-0.12l0.11-4.09l0.07-2.92l0.01-0.16l-0.08-1.96l-0.03-0.67l-0.04-1.08c0,0-0.01,0,0,0l-0.08-1.98
		l-0.17-4.05l-0.31-5.93c0,0-7.66-3.62-11.42-13.44c-3.76-9.82-7.3-20.21-8.47-26.39c-1.17-6.18-2.6-15.18-1.59-20.07
		c1-4.88,2.88-7.2,6.08-8.1c3.18-0.91,7.24,2.3,8.55,4.94c-0.05-0.13-0.34-0.91-0.04-1c0.32-0.1-1.78-3.53-2.12-7.68
		c-0.35-4.15-1.26-12.78,4.72-14.66c5.99-1.88,9.98,2.99,11.01,6.88l-0.31-2.79l-4.62-22.81l-2.99-14.86c0,0-2.2-13.06-2.22-13.21
		c-0.01-0.15-1.3-12.04,3.14-12.8c4.44-0.77,7.25,6.07,8.25,9c1,2.93,2.82,8.72,3.85,14.17c1.02,5.45,3.21,17.89,4.13,23.26
		c0.92,5.38,2.59,10.49,3.9,14.52c1.31,4.03,2.98,6.53,4.98,6.7c2.01,0.17,4.54-2.87,5.74-6.57c1.19-3.69,3.54-13.32,4.59-19.98
		c1.05-6.66,2.1-15.5,3.51-21.23c1.41-5.73,3.2-16.12,9.71-15.26c6.51,0.86,5.14,12.41,4.12,17.17c-1.02,4.76-2.36,14.04-3.6,19.37
		c-1.24,5.33-2.94,19.88-3.27,24.79c-0.34,4.91-0.65,14.41-0.5,21.29c0.15,6.84,1.26,12.46,1.4,12.72c0.08,0.14,0.17,0.27,0.25,0.41
		c0.46,0.77,1.47,2.52,2.35,4.65c0.56,1.34,1.07,2.83,1.35,4.3c0.01,0.01,0.01,0.01,0.01,0.02c0.11,0.58,0.22,1.12,0.32,1.64
		c0.67,3.53,0.97,6.02-0.06,11.15c0,0,0,0.01-0.01,0.02c-0.42,2.07-0.66,3.57-0.93,4.91c-0.01,0.02-0.01,0.04-0.02,0.06
		c-0.49,2.42-1.05,4.37-2.76,8.37c-0.02,0.06-0.05,0.12-0.07,0.17c-0.17,0.4-0.34,0.79-0.51,1.18c-0.04,0.09-0.08,0.18-0.12,0.27
		c-0.83,1.93-1.6,3.69-2.26,5.35c-1.28,3.22-2.12,6.04-2.13,8.87v0.03c-0.02,2.27-0.12,4.8-0.16,7.43
		c-0.02,0.98-0.03,1.97-0.02,2.96c0,0.77,0.02,1.53,0.05,2.3v0.04c0.04,1.02,0.1,2.03,0.19,3.04c0.01,0.06,0.01,0.13,0.02,0.2
		c0.5,5.28,1.28,11.03,2.35,17.4c0,0.04,0.01,0.07,0.02,0.1c0.92,5.43,1.71,9.55,3.54,15.2c0.35,1.09,0.75,2.23,1.18,3.46
		c0,0.02,0.01,0.03,0.01,0.04C72.99-15.42,73.8-13.14,74.4-11.43"/>
	
		<path style="clip-path:url(#SVGID_00000093174781446991488880000011140084546234625959_);fill:none;stroke:#231F20;stroke-width:0.785;stroke-linecap:round;stroke-linejoin:round;stroke-miterlimit:10;" d="
		M10.56-7.77c7.4-10,12.69-25.86,12.9-50.25c0.05-5.43-0.16-11.37-0.65-17.87"/>
	
		<path style="clip-path:url(#SVGID_00000093174781446991488880000011140084546234625959_);fill:none;stroke:#231F20;stroke-width:0.785;stroke-linecap:round;stroke-linejoin:round;stroke-miterlimit:10;" d="
		M21.46-126.17c2.67,8.42,2.43,13.52-1.55,14.85c-5.26,1.75-7.29-6.18-14.01-20.85"/>
	
		<path style="clip-path:url(#SVGID_00000093174781446991488880000011140084546234625959_);fill:none;stroke:#231F20;stroke-width:0.785;stroke-linecap:round;stroke-linejoin:round;stroke-miterlimit:10;" d="
		M26.62-74.47c-4.98-1.54-9.78-4.73-13.24-10.75c-4.42-7.67-19.49-49.51-8.45-57.5c4.9-3.54,8.98,0.69,11.22,4.04"/>
	
		<path style="clip-path:url(#SVGID_00000093174781446991488880000011140084546234625959_);fill:none;stroke:#231F20;stroke-width:0.785;stroke-linecap:round;stroke-linejoin:round;stroke-miterlimit:10;" d="
		M43.28-74.03c-3.54,0.69-8.12,1.15-12.79,0.44"/>
	
		<path style="clip-path:url(#SVGID_00000093174781446991488880000011140084546234625959_);fill:none;stroke:#231F20;stroke-width:0.785;stroke-linecap:round;stroke-linejoin:round;stroke-miterlimit:10;" d="
		M16.24-138.9c-0.82-2.65-1.37-4.64-1.8-6.23c-1.78-6.58-1.93-16.59,5.91-17.61c7.84-1.02,10,10.11,10,10.11s-7.38-36.36-9-44.58
		c-1.62-8.21-4.83-23.85,1.99-24.65c6.81-0.8,11.22,21.24,12.83,31.66c1.6,10.42,5.88,36.12,11.62,35.98
		c5.33-0.13,8.31-13.12,11.71-36.36c3.41-23.24,6.87-27.6,12.01-26.79c3.47,0.55,5.24,4.15,4.12,14.7
		c-0.43,4.01-1.27,9.03-2.59,15.27c-4.81,22.64-6.89,49.06-3.68,65.49"/>
	
		<path style="clip-path:url(#SVGID_00000093174781446991488880000011140084546234625959_);fill:none;stroke:#231F20;stroke-width:0.785;stroke-linecap:round;stroke-linejoin:round;stroke-miterlimit:10;" d="
		M31.11-124.44c0,3.47-0.84,6.05-3.95,5.78c-1.66-0.14-3.34-2.11-4.93-4.96"/>
	
		<path style="clip-path:url(#SVGID_00000093174781446991488880000011140084546234625959_);fill:none;stroke:#231F20;stroke-width:0.785;stroke-linecap:round;stroke-linejoin:round;stroke-miterlimit:10;" d="
		M26.62-154.74c-0.7,2.41,0.89,8.82,2.33,14.22"/>
	
		<path style="clip-path:url(#SVGID_00000093174781446991488880000011140084546234625959_);fill:none;stroke:#231F20;stroke-width:0.785;stroke-linecap:round;stroke-linejoin:round;stroke-miterlimit:10;" d="
		M64.45-63.24c-0.01-0.99-0.01-1.84,0-2.83c0.07-6.13,1.62-12.14,4.24-17.68c2.65-5.6,5.74-14.37,5.25-24.18
		c-0.97-19.53-22.94-31.65-30.69-32.36c-7.75-0.71-12.7-0.74-24.8,0.96c-8.45,1.19-6.06,11.47,5.01,13.65s16.34,1.72,16.34,1.72
		s3.89,5.5,6.87,8.01"/>
	
		<path style="clip-path:url(#SVGID_00000093174781446991488880000011140084546234625959_);fill:none;stroke:#231F20;stroke-width:0.785;stroke-linecap:round;stroke-linejoin:round;stroke-miterlimit:10;" d="
		M75.96-7.77c-4.31-9.25-10.64-30.27-11.43-52.35"/>
	
		<path style="clip-path:url(#SVGID_00000093174781446991488880000011140084546234625959_);fill:none;stroke:#231F20;stroke-width:0.785;stroke-linecap:round;stroke-linejoin:round;stroke-miterlimit:10;" d="
		M43.28-119.49c-2.85,2.28-6.65,8.15-6.34,15.8"/>
	<path style="clip-path:url(#SVGID_00000093174781446991488880000011140084546234625959_);fill:#231F20;" d="M16.82-121.85
		c-3.21,1.71,0.32,8.82,0.96,10.06c0.77,1.5,2.62,3.25,4.73,2.56c3.57-1.18,0.33-9.62-0.47-11.29
		C20.97-122.75,18.28-122.63,16.82-121.85"/>
	<path style="clip-path:url(#SVGID_00000093174781446991488880000011140084546234625959_);fill:#231F20;" d="M23.89-124.46
		c0.82,2.54,1.5,5.54,2.73,7.59c0.72,1.19,4.26,0.96,4.48-1.34c0.26-2.65-1.09-6.37-1.09-6.37l-6.12-1.15V-124.46z"/>
	<path style="clip-path:url(#SVGID_00000093174781446991488880000011140084546234625959_);fill:#231F20;" d="M26.1-130.56
		c-1.34,1.92-8.69,2.15-12.29,0.48c-1.37-0.64-2.15-3.41-1.98-5.04c0.2-1.9,3.49-2.32,5.03-2.45c1.41-0.13,2.82-0.27,4.23-0.28
		c1.15-0.02,2.81-0.16,3.83,0.46c1.1,0.66,1.44,2.23,1.61,3.4C26.69-132.94,26.75-131.48,26.1-130.56"/>
	<path style="clip-path:url(#SVGID_00000093174781446991488880000011140084546234625959_);fill:#83C455;" d="M13.84-47.72
		c0.4-3.25,4.47-2.97,6.78-3.83c-0.74,1.9-0.54,4.01-1.99,5.68c-0.63,0.73-1.44,1.24-2.34,1.58c-0.39,0.15-1.02,0.45-1.36,0.71"/>
	
		<path style="clip-path:url(#SVGID_00000093174781446991488880000011140084546234625959_);fill:none;stroke:#231F20;stroke-width:0.393;stroke-linecap:round;stroke-linejoin:round;stroke-miterlimit:10;" d="
		M13.84-47.72c0.4-3.25,4.47-2.97,6.78-3.83c-0.74,1.9-0.54,4.01-1.99,5.68c-0.63,0.73-1.44,1.24-2.34,1.58
		c-0.39,0.15-1.02,0.45-1.36,0.71"/>
	<path style="clip-path:url(#SVGID_00000093174781446991488880000011140084546234625959_);fill:#67B350;" d="M14.93-43.57
		c-0.06,0.21-0.15,0.44-0.26,0.7c-0.29-0.06-2.1,0.38-3.17,0.08c-1.18-0.33-2.38-0.86-2.94-1.97c-0.57-1.11-0.63-2.57-0.4-3.79
		c0.17-0.91,0.87-2.15,0.64-3.08c0.35,0.18,0.56,0.49,0.86,0.73c0.45,0.36,1.03,0.64,1.51,0.96c0.99,0.68,2.11,1.54,2.89,2.46
		c0.64,0.75,0.93,1.71,1.01,2.67C15.09-44.47,15.08-44.1,14.93-43.57"/>
	
		<path style="clip-path:url(#SVGID_00000093174781446991488880000011140084546234625959_);fill:none;stroke:#231F20;stroke-width:0.393;stroke-linecap:round;stroke-linejoin:round;stroke-miterlimit:10;" d="
		M14.93-43.57c-0.06,0.21-0.15,0.44-0.26,0.7c-0.29-0.06-2.1,0.38-3.17,0.08c-1.18-0.33-2.38-0.86-2.94-1.97
		c-0.57-1.11-0.63-2.57-0.4-3.79c0.17-0.91,0.87-2.15,0.64-3.08c0.35,0.18,0.56,0.49,0.86,0.73c0.45,0.36,1.03,0.64,1.51,0.96
		c0.99,0.68,2.11,1.54,2.89,2.46c0.64,0.75,0.93,1.71,1.01,2.67C15.09-44.47,15.08-44.1,14.93-43.57z"/>
	<path style="clip-path:url(#SVGID_00000093174781446991488880000011140084546234625959_);fill:#83C455;" d="M14.73-31.4
		c-1.5-0.79-3.58-1.52-4.73-2.9c-0.83-0.99-1.52-2.48-1.6-3.77c-0.07-1.16,0.19-2.44,0.3-3.57c1.93,0.84,4.17,1.54,4.92,3.66
		c0,0.23,0.02,0.53,0.06,0.95c-0.15,0.27-0.27,0.56-0.36,0.85c-0.29,0.98-0.07,2.16,0.36,3.05c0.26,0.54,0.74,1.27,1.01,1.65
		c0,0.01,0,0.01,0.01,0.01C14.71-31.45,14.73-31.43,14.73-31.4"/>
	
		<path style="clip-path:url(#SVGID_00000093174781446991488880000011140084546234625959_);fill:none;stroke:#231F20;stroke-width:0.393;stroke-linecap:round;stroke-linejoin:round;stroke-miterlimit:10;" d="
		M14.73-31.4c-1.5-0.79-3.58-1.52-4.73-2.9c-0.83-0.99-1.52-2.48-1.6-3.77c-0.07-1.16,0.19-2.44,0.3-3.57
		c1.93,0.84,4.17,1.54,4.92,3.66c0,0.23,0.02,0.53,0.06,0.95c-0.15,0.27-0.27,0.56-0.36,0.85c-0.29,0.98-0.07,2.16,0.36,3.05
		c0.26,0.54,0.74,1.27,1.01,1.65c0,0.01,0,0.01,0.01,0.01C14.71-31.45,14.73-31.43,14.73-31.4z"/>
	
		<path style="clip-path:url(#SVGID_00000093174781446991488880000011140084546234625959_);fill:none;stroke:#231F20;stroke-width:0.393;stroke-linecap:round;stroke-linejoin:round;stroke-miterlimit:10;" d="
		M14.79-31.37c-0.02-0.01-0.04-0.02-0.06-0.03"/>
	
		<path style="clip-path:url(#SVGID_00000093174781446991488880000011140084546234625959_);fill:none;stroke:#231F20;stroke-width:0.393;stroke-linecap:round;stroke-linejoin:round;stroke-miterlimit:10;" d="
		M13.65-37.93c0-0.02-0.01-0.04-0.02-0.05"/>
	<path style="clip-path:url(#SVGID_00000093174781446991488880000011140084546234625959_);fill:#83C455;" d="M16.54-56.12
		c0.49-0.73,1.79-1.22,2.63-1.35c0.92-0.14,2.55-0.05,3.34-0.58c-0.47,0.33-0.65,1-0.9,1.5c-0.42,0.85-0.99,1.43-1.75,2.03
		c-1.21,0.96-3.17,1.24-3.54,0.6"/>
	
		<path style="clip-path:url(#SVGID_00000093174781446991488880000011140084546234625959_);fill:none;stroke:#231F20;stroke-width:0.393;stroke-linecap:round;stroke-linejoin:round;stroke-miterlimit:10;" d="
		M16.54-56.12c0.49-0.73,1.79-1.22,2.63-1.35c0.92-0.14,2.55-0.05,3.34-0.58c-0.47,0.33-0.65,1-0.9,1.5
		c-0.42,0.85-0.99,1.43-1.75,2.03c-1.21,0.96-3.17,1.24-3.54,0.6"/>
	
		<path style="clip-path:url(#SVGID_00000093174781446991488880000011140084546234625959_);fill:none;stroke:#231F20;stroke-width:0.393;stroke-linecap:round;stroke-linejoin:round;stroke-miterlimit:10;" d="
		M10.71-47.41c1.55,1.17,2.83,2.93,3.95,4.54"/>
	<path style="clip-path:url(#SVGID_00000093174781446991488880000011140084546234625959_);fill:#67B350;" d="M16.32-53.9
		c-0.26,0.63-0.74,1.2-1.5,1.69c-0.76-0.22-2.7-1.2-3.13-2.86c-0.31-1.19-0.35-3.56,2.23-6.27C15.31-59.29,17.3-56.23,16.32-53.9"/>
	
		<path style="clip-path:url(#SVGID_00000093174781446991488880000011140084546234625959_);fill:none;stroke:#231F20;stroke-width:0.393;stroke-linecap:round;stroke-linejoin:round;stroke-miterlimit:10;" d="
		M16.32-53.9c-0.26,0.63-0.74,1.2-1.5,1.69c-0.76-0.22-2.7-1.2-3.13-2.86c-0.31-1.19-0.35-3.56,2.23-6.27
		C15.31-59.29,17.3-56.23,16.32-53.9z"/>
	
		<path style="clip-path:url(#SVGID_00000093174781446991488880000011140084546234625959_);fill:none;stroke:#231F20;stroke-width:0.393;stroke-linecap:round;stroke-linejoin:round;stroke-miterlimit:10;" d="
		M13.88-56.47c0.03,0.51,0.19,1.56,0.32,2.05c0.18,0.64,0.49,1.48,0.75,1.96"/>
	<path style="clip-path:url(#SVGID_00000093174781446991488880000011140084546234625959_);fill:#67B350;" d="M20.39-38.28
		c-0.02,1.31-0.37,2.6-0.77,3.84c-0.54,1.67-3.01,3.54-4.83,3.07c-0.03-0.03-0.05-0.07-0.08-0.12c-0.01,0-0.01,0-0.01-0.01
		c-0.27-0.38-0.75-1.1-1.01-1.64c-0.44-0.9-0.65-2.08-0.36-3.05c0.08-0.29,0.21-0.57,0.36-0.85c0.66-1.2,1.88-2.22,3.03-2.77
		c1.2-0.56,2.59-0.48,3.74-1.13C20.27-40.12,20.4-39.13,20.39-38.28"/>
	
		<path style="clip-path:url(#SVGID_00000093174781446991488880000011140084546234625959_);fill:none;stroke:#231F20;stroke-width:0.393;stroke-linecap:round;stroke-linejoin:round;stroke-miterlimit:10;" d="
		M20.39-38.28c-0.02,1.31-0.37,2.6-0.77,3.84c-0.54,1.67-3.01,3.54-4.83,3.07c-0.03-0.03-0.05-0.07-0.08-0.12
		c-0.01,0-0.01,0-0.01-0.01c-0.27-0.38-0.75-1.1-1.01-1.64c-0.44-0.9-0.65-2.08-0.36-3.05c0.08-0.29,0.21-0.57,0.36-0.85
		c0.66-1.2,1.88-2.22,3.03-2.77c1.2-0.56,2.59-0.48,3.74-1.13C20.27-40.12,20.4-39.13,20.39-38.28z"/>
	
		<path style="clip-path:url(#SVGID_00000093174781446991488880000011140084546234625959_);fill:none;stroke:#231F20;stroke-width:0.393;stroke-linecap:round;stroke-linejoin:round;stroke-miterlimit:10;" d="
		M16.54-56.12c0.71-1.13,2.9-2.75,3.56-4.1"/>
	
		<path style="clip-path:url(#SVGID_00000093174781446991488880000011140084546234625959_);fill:none;stroke:#231F20;stroke-width:0.393;stroke-linecap:round;stroke-linejoin:round;stroke-miterlimit:10;" d="
		M14.82-52.21c-0.11,0.39-1.57,2.81-0.98,4.49"/>
	
		<path style="clip-path:url(#SVGID_00000093174781446991488880000011140084546234625959_);fill:none;stroke:#231F20;stroke-width:0.393;stroke-linecap:round;stroke-linejoin:round;stroke-miterlimit:10;" d="
		M13.63-37.98c0-0.22,0.01-0.38,0.02-0.51c0.02-0.59,0.13-1.14,0.25-1.72c0.22-1.07,0.46-1.62,0.77-2.65"/>
	<path style="clip-path:url(#SVGID_00000093174781446991488880000011140084546234625959_);fill:#83C455;" d="M22.19-62.15
		c0.5-0.39,0.89-0.62,1.52-0.79c0.66-0.18,1.49-0.3,2,0.25c0.35,0.38,0.56,0.92,0.35,1.42c-0.24,0.58-0.8,0.86-1.35,1.07
		c-0.69,0.25-1.32,0.14-2.02,0.1c-0.66-0.04-2.25-0.18-2.41-0.14c-0.05,0.01-0.11,0.02-0.16,0.03"/>
	
		<path style="clip-path:url(#SVGID_00000093174781446991488880000011140084546234625959_);fill:none;stroke:#231F20;stroke-width:0.393;stroke-linecap:round;stroke-linejoin:round;stroke-miterlimit:10;" d="
		M22.19-62.15c0.5-0.39,0.89-0.62,1.52-0.79c0.66-0.18,1.49-0.3,2,0.25c0.35,0.38,0.56,0.92,0.35,1.42
		c-0.24,0.58-0.8,0.86-1.35,1.07c-0.69,0.25-1.32,0.14-2.02,0.1c-0.66-0.04-2.25-0.18-2.41-0.14c-0.05,0.01-0.11,0.02-0.16,0.03"/>
	
		<path style="clip-path:url(#SVGID_00000093174781446991488880000011140084546234625959_);fill:none;stroke:#231F20;stroke-width:0.393;stroke-linecap:round;stroke-linejoin:round;stroke-miterlimit:10;" d="
		M14.73-31.4c0.32,0.97,0.13,2.88,1.17,5.55c0.61,1.59,1.36,2.81,2.11,3.75c0.04,0.05,0.08,0.1,0.12,0.15
		c1.11,1.38,2.23,2.16,2.92,2.65c8.28,5.91,16.82,7.33,23.26,9.82c1.61,0.62,3.09,1.31,4.4,2.16h0.01c2.32,1.5,4.1,3.47,5.15,6.42"
		/>
	<path style="clip-path:url(#SVGID_00000093174781446991488880000011140084546234625959_);fill:#83C455;" d="M23.38-63.94
		C23.37-63.93,23.38-63.93,23.38-63.94c-0.06,0.19-0.15,0.37-0.25,0.55c-0.26,0.46-0.59,0.86-0.94,1.24
		c-0.66,0.69-1.41,1.28-2.07,1.92l-0.01,0.01c-0.1-0.38-0.27-3.17-0.05-4.03c0.19-0.75,0.51-1.45,1.07-1.95
		c0.94-0.86,1.78-0.52,2.17,0.28L23.38-63.94z"/>
	
		<path style="clip-path:url(#SVGID_00000093174781446991488880000011140084546234625959_);fill:none;stroke:#231F20;stroke-width:0.393;stroke-linecap:round;stroke-linejoin:round;stroke-miterlimit:10;" d="
		M23.38-63.94C23.37-63.93,23.38-63.93,23.38-63.94c-0.06,0.19-0.15,0.37-0.25,0.55c-0.26,0.46-0.59,0.86-0.94,1.24
		c-0.66,0.69-1.41,1.28-2.07,1.92l-0.01,0.01c-0.1-0.38-0.27-3.17-0.05-4.03c0.19-0.75,0.51-1.45,1.07-1.95
		c0.94-0.86,1.78-0.52,2.17,0.28L23.38-63.94z"/>
	
		<path style="clip-path:url(#SVGID_00000093174781446991488880000011140084546234625959_);fill:none;stroke:#231F20;stroke-width:0.393;stroke-linecap:round;stroke-linejoin:round;stroke-miterlimit:10;" d="
		M23.41-64.05c-0.01,0.04-0.02,0.08-0.03,0.12l-0.08-1.98c0.03,0.05,0.05,0.11,0.07,0.17C23.55-65.27,23.59-64.66,23.41-64.05z"/>
	<path style="clip-path:url(#SVGID_00000093174781446991488880000011140084546234625959_);fill:#83C455;" d="M7.2-26.2
		c-0.61,0.07-1.09,0.43-1.57,0.77c-0.68,0.49-1.34,0.94-2.14,1.23c0.57-0.31,1.57,0.76,1.99,1.03c0.91,0.57,1.97,1.19,3.07,1.22
		c0.75,0.03,1.63-0.16,2.28-0.56c1.2-0.75,1.98-2.29,2.24-2.29"/>
	
		<path style="clip-path:url(#SVGID_00000093174781446991488880000011140084546234625959_);fill:none;stroke:#231F20;stroke-width:0.393;stroke-linecap:round;stroke-linejoin:round;stroke-miterlimit:10;" d="
		M7.2-26.2c-0.61,0.07-1.09,0.43-1.57,0.77c-0.68,0.49-1.34,0.94-2.14,1.23c0.57-0.31,1.57,0.76,1.99,1.03
		c0.91,0.57,1.97,1.19,3.07,1.22c0.75,0.03,1.63-0.16,2.28-0.56c1.2-0.75,1.98-2.29,2.24-2.29"/>
	<path style="clip-path:url(#SVGID_00000093174781446991488880000011140084546234625959_);fill:#67B350;" d="M11.2-30.98
		c-0.9-1.22-2.28-1.62-3.7-1.79c-0.69-0.08-1.38,0.01-2.06-0.14c-0.43-0.1-0.85-0.35-1.26-0.43c0.27,0.23,0.39,0.66,0.5,1
		c0.26,0.84,0.46,1.66,0.81,2.47c0.54,1.28,0.89,2.95,1.95,3.92c0.93,0.85,1.54,0.93,2.94,1c0.86,0.04,1.72,0.12,2.57,0.04
		c0,0-0.17-2.22-0.32-2.98C12.42-28.94,11.83-30.12,11.2-30.98"/>
	
		<path style="clip-path:url(#SVGID_00000093174781446991488880000011140084546234625959_);fill:none;stroke:#231F20;stroke-width:0.393;stroke-linecap:round;stroke-linejoin:round;stroke-miterlimit:10;" d="
		M11.2-30.98c-0.9-1.22-2.28-1.62-3.7-1.79c-0.69-0.08-1.38,0.01-2.06-0.14c-0.43-0.1-0.85-0.35-1.26-0.43
		c0.27,0.23,0.39,0.66,0.5,1c0.26,0.84,0.46,1.66,0.81,2.47c0.54,1.28,0.89,2.95,1.95,3.92c0.93,0.85,1.54,0.93,2.94,1
		c0.86,0.04,1.72,0.12,2.57,0.04c0,0-0.17-2.22-0.32-2.98C12.42-28.94,11.83-30.12,11.2-30.98z"/>
	
		<path style="clip-path:url(#SVGID_00000093174781446991488880000011140084546234625959_);fill:none;stroke:#231F20;stroke-width:0.393;stroke-linecap:round;stroke-linejoin:round;stroke-miterlimit:10;" d="
		M12.95-24.91c2.11,2.12,4.09,1.86,4.94,2.67"/>
	
		<path style="clip-path:url(#SVGID_00000093174781446991488880000011140084546234625959_);fill:none;stroke:#231F20;stroke-width:0.393;stroke-linecap:round;stroke-linejoin:round;stroke-miterlimit:10;" d="
		M9.43-28.43c1.02,1.04,1.82,2.44,3.52,3.52"/>
	
		<path style="clip-path:url(#SVGID_00000093174781446991488880000011140084546234625959_);fill:none;stroke:#231F20;stroke-width:0.393;stroke-linecap:round;stroke-linejoin:round;stroke-miterlimit:10;" d="
		M17.03-36.41c-1.13,0.85-3.29,3.5-2.24,5.04"/>
	<path style="clip-path:url(#SVGID_00000093174781446991488880000011140084546234625959_);fill:#83C455;" d="M75.12-47.72
		c-0.4-3.25-4.47-2.97-6.78-3.83c0.74,1.9,0.54,4.01,1.99,5.68c0.63,0.73,1.44,1.24,2.34,1.58c0.39,0.15,1.02,0.45,1.36,0.71"/>
	
		<path style="clip-path:url(#SVGID_00000093174781446991488880000011140084546234625959_);fill:none;stroke:#231F20;stroke-width:0.393;stroke-linecap:round;stroke-linejoin:round;stroke-miterlimit:10;" d="
		M75.12-47.72c-0.4-3.25-4.47-2.97-6.78-3.83c0.74,1.9,0.54,4.01,1.99,5.68c0.63,0.73,1.44,1.24,2.34,1.58
		c0.39,0.15,1.02,0.45,1.36,0.71"/>
	<path style="clip-path:url(#SVGID_00000093174781446991488880000011140084546234625959_);fill:#67B350;" d="M80.42-44.76
		c-0.57,1.1-1.77,1.63-2.94,1.97c-1.07,0.3-2.88-0.14-3.18-0.08c-0.11-0.26-0.2-0.49-0.26-0.7c-0.15-0.53-0.16-0.9-0.13-1.24
		c0.08-0.96,0.38-1.92,1.01-2.67c0.78-0.92,1.9-1.78,2.9-2.46c0.48-0.33,1.05-0.6,1.5-0.96c0.3-0.24,0.51-0.55,0.86-0.73
		c-0.23,0.93,0.47,2.17,0.64,3.08C81.05-47.32,80.99-45.87,80.42-44.76"/>
	
		<path style="clip-path:url(#SVGID_00000093174781446991488880000011140084546234625959_);fill:none;stroke:#231F20;stroke-width:0.393;stroke-linecap:round;stroke-linejoin:round;stroke-miterlimit:10;" d="
		M80.42-44.76c-0.57,1.1-1.77,1.63-2.94,1.97c-1.07,0.3-2.88-0.14-3.18-0.08c-0.11-0.26-0.2-0.49-0.26-0.7
		c-0.15-0.53-0.16-0.9-0.13-1.24c0.08-0.96,0.38-1.92,1.01-2.67c0.78-0.92,1.9-1.78,2.9-2.46c0.48-0.33,1.05-0.6,1.5-0.96
		c0.3-0.24,0.51-0.55,0.86-0.73c-0.23,0.93,0.47,2.17,0.64,3.08C81.05-47.32,80.99-45.87,80.42-44.76z"/>
	<path style="clip-path:url(#SVGID_00000093174781446991488880000011140084546234625959_);fill:#83C455;" d="M80.56-38.07
		c-0.08,1.29-0.76,2.78-1.6,3.77c-1.15,1.38-3.22,2.11-4.73,2.9c0.01-0.03,0.02-0.06,0.03-0.08v-0.01c0.27-0.38,0.75-1.1,1.01-1.64
		c0.43-0.9,0.65-2.08,0.36-3.05c-0.08-0.29-0.21-0.57-0.36-0.85v-0.01c0.04-0.41,0.06-0.71,0.06-0.93v-0.01
		c0.75-2.12,2.99-2.82,4.92-3.66C80.37-40.52,80.63-39.23,80.56-38.07"/>
	
		<path style="clip-path:url(#SVGID_00000093174781446991488880000011140084546234625959_);fill:none;stroke:#231F20;stroke-width:0.393;stroke-linecap:round;stroke-linejoin:round;stroke-miterlimit:10;" d="
		M80.56-38.07c-0.08,1.29-0.76,2.78-1.6,3.77c-1.15,1.38-3.22,2.11-4.73,2.9c0.01-0.03,0.02-0.06,0.03-0.08v-0.01
		c0.27-0.38,0.75-1.1,1.01-1.64c0.43-0.9,0.65-2.08,0.36-3.05c-0.08-0.29-0.21-0.57-0.36-0.85v-0.01c0.04-0.41,0.06-0.71,0.06-0.93
		v-0.01c0.75-2.12,2.99-2.82,4.92-3.66C80.37-40.52,80.63-39.23,80.56-38.07z"/>
	
		<path style="clip-path:url(#SVGID_00000093174781446991488880000011140084546234625959_);fill:none;stroke:#231F20;stroke-width:0.393;stroke-linecap:round;stroke-linejoin:round;stroke-miterlimit:10;" d="
		M74.24-31.4c-0.02,0.01-0.04,0.02-0.06,0.03"/>
	
		<path style="clip-path:url(#SVGID_00000093174781446991488880000011140084546234625959_);fill:none;stroke:#231F20;stroke-width:0.393;stroke-linecap:round;stroke-linejoin:round;stroke-miterlimit:10;" d="
		M75.33-37.98c-0.01,0.02-0.02,0.03-0.02,0.05"/>
	<path style="clip-path:url(#SVGID_00000093174781446991488880000011140084546234625959_);fill:#83C455;" d="M72.42-56.12
		c-0.49-0.73-1.79-1.22-2.63-1.35c-0.93-0.14-2.55-0.05-3.34-0.58c0.47,0.33,0.65,1,0.9,1.5c0.42,0.85,0.99,1.43,1.75,2.03
		c1.21,0.96,3.17,1.24,3.54,0.6"/>
	
		<path style="clip-path:url(#SVGID_00000093174781446991488880000011140084546234625959_);fill:none;stroke:#231F20;stroke-width:0.393;stroke-linecap:round;stroke-linejoin:round;stroke-miterlimit:10;" d="
		M72.42-56.12c-0.49-0.73-1.79-1.22-2.63-1.35c-0.93-0.14-2.55-0.05-3.34-0.58c0.47,0.33,0.65,1,0.9,1.5
		c0.42,0.85,0.99,1.43,1.75,2.03c1.21,0.96,3.17,1.24,3.54,0.6"/>
	
		<path style="clip-path:url(#SVGID_00000093174781446991488880000011140084546234625959_);fill:none;stroke:#231F20;stroke-width:0.393;stroke-linecap:round;stroke-linejoin:round;stroke-miterlimit:10;" d="
		M78.25-47.41c-1.55,1.17-2.83,2.93-3.95,4.54"/>
	<path style="clip-path:url(#SVGID_00000093174781446991488880000011140084546234625959_);fill:#67B350;" d="M77.28-55.07
		c-0.44,1.66-2.37,2.64-3.14,2.86c-0.76-0.49-1.24-1.06-1.5-1.69c-0.97-2.33,1.01-5.39,2.4-7.44
		C77.62-58.63,77.59-56.26,77.28-55.07"/>
	
		<path style="clip-path:url(#SVGID_00000093174781446991488880000011140084546234625959_);fill:none;stroke:#231F20;stroke-width:0.393;stroke-linecap:round;stroke-linejoin:round;stroke-miterlimit:10;" d="
		M77.28-55.07c-0.44,1.66-2.37,2.64-3.14,2.86c-0.76-0.49-1.24-1.06-1.5-1.69c-0.97-2.33,1.01-5.39,2.4-7.44
		C77.62-58.63,77.59-56.26,77.28-55.07z"/>
	
		<path style="clip-path:url(#SVGID_00000093174781446991488880000011140084546234625959_);fill:none;stroke:#231F20;stroke-width:0.393;stroke-linecap:round;stroke-linejoin:round;stroke-miterlimit:10;" d="
		M75.08-56.47c-0.03,0.51-0.19,1.56-0.32,2.05c-0.18,0.64-0.49,1.48-0.75,1.96"/>
	
		<path style="clip-path:url(#SVGID_00000093174781446991488880000011140084546234625959_);fill:none;stroke:#231F20;stroke-width:0.393;stroke-linecap:round;stroke-linejoin:round;stroke-miterlimit:10;" d="
		M68.85-60.21c0.67,1.34,2.85,2.96,3.57,4.1"/>
	
		<path style="clip-path:url(#SVGID_00000093174781446991488880000011140084546234625959_);fill:none;stroke:#231F20;stroke-width:0.393;stroke-linecap:round;stroke-linejoin:round;stroke-miterlimit:10;" d="
		M74.14-52.21c0.11,0.39,1.57,2.81,0.98,4.49"/>
	
		<path style="clip-path:url(#SVGID_00000093174781446991488880000011140084546234625959_);fill:none;stroke:#231F20;stroke-width:0.393;stroke-linecap:round;stroke-linejoin:round;stroke-miterlimit:10;" d="
		M74.3-42.87c0.32,1.03,0.56,1.58,0.78,2.65c0.12,0.59,0.23,1.14,0.25,1.72c0.01,0.14,0.02,0.29,0.01,0.51"/>
	<path style="clip-path:url(#SVGID_00000093174781446991488880000011140084546234625959_);fill:#67B350;" d="M75.28-33.14
		c-0.26,0.54-0.74,1.27-1.01,1.65v0.01c-0.04,0.04-0.06,0.08-0.09,0.11c-1.83,0.46-4.3-1.4-4.84-3.07
		c-0.39-1.24-0.75-2.53-0.77-3.84c-0.01-0.86,0.12-1.85-0.06-2.66c1.15,0.66,2.53,0.57,3.73,1.13c1.15,0.55,2.37,1.57,3.03,2.76
		v0.01c0.15,0.27,0.27,0.56,0.36,0.85C75.93-35.21,75.71-34.04,75.28-33.14"/>
	
		<path style="clip-path:url(#SVGID_00000093174781446991488880000011140084546234625959_);fill:none;stroke:#231F20;stroke-width:0.393;stroke-linecap:round;stroke-linejoin:round;stroke-miterlimit:10;" d="
		M75.28-33.14c-0.26,0.54-0.74,1.27-1.01,1.65v0.01c-0.04,0.04-0.06,0.08-0.09,0.11c-1.83,0.46-4.3-1.4-4.84-3.07
		c-0.39-1.24-0.75-2.53-0.77-3.84c-0.01-0.86,0.12-1.85-0.06-2.66c1.15,0.66,2.53,0.57,3.73,1.13c1.15,0.55,2.37,1.57,3.03,2.76
		v0.01c0.15,0.27,0.27,0.56,0.36,0.85C75.93-35.21,75.71-34.04,75.28-33.14z"/>
	<path style="clip-path:url(#SVGID_00000093174781446991488880000011140084546234625959_);fill:#67B350;" d="M68.84-60.22
		c-0.05-0.01-0.1-0.01-0.15-0.02c-0.16-0.04-1.75,0.1-2.41,0.14c-0.59,0.04-1.13,0.12-1.69-0.01c-0.02,0-0.04-0.01-0.06-0.01
		c-0.09-0.02-0.18-0.05-0.27-0.08c-0.56-0.21-1.11-0.49-1.35-1.07c-0.21-0.49-0.01-1.04,0.35-1.42c0.35-0.38,0.85-0.45,1.35-0.38
		c0.23,0.02,0.45,0.07,0.66,0.13c0.62,0.18,1.01,0.4,1.51,0.79"/>
	
		<path style="clip-path:url(#SVGID_00000093174781446991488880000011140084546234625959_);fill:none;stroke:#231F20;stroke-width:0.393;stroke-linecap:round;stroke-linejoin:round;stroke-miterlimit:10;" d="
		M68.84-60.22c-0.05-0.01-0.1-0.01-0.15-0.02c-0.16-0.04-1.75,0.1-2.41,0.14c-0.59,0.04-1.13,0.12-1.69-0.01
		c-0.02,0-0.04-0.01-0.06-0.01c-0.09-0.02-0.18-0.05-0.27-0.08c-0.56-0.21-1.11-0.49-1.35-1.07c-0.21-0.49-0.01-1.04,0.35-1.42
		c0.35-0.38,0.85-0.45,1.35-0.38c0.23,0.02,0.45,0.07,0.66,0.13c0.62,0.18,1.01,0.4,1.51,0.79"/>
	
		<path style="clip-path:url(#SVGID_00000093174781446991488880000011140084546234625959_);fill:none;stroke:#231F20;stroke-width:0.393;stroke-linecap:round;stroke-linejoin:round;stroke-miterlimit:10;" d="
		M74.24-31.4c-0.33,0.97-0.13,2.88-1.17,5.55c-0.59,1.51-1.27,2.68-1.97,3.58c-0.09,0.12-0.17,0.22-0.26,0.33
		c-0.03,0.04-0.06,0.07-0.09,0.1c-1.06,1.27-2.14,2-2.99,2.54"/>
	<path style="clip-path:url(#SVGID_00000093174781446991488880000011140084546234625959_);fill:#67B350;" d="M68.85-60.22h-0.01
		c-0.66-0.65-1.41-1.24-2.07-1.92c-0.35-0.37-0.68-0.78-0.94-1.24c-1.11-1.93,0.29-4.39,2.01-2.81c0.55,0.5,0.87,1.2,1.06,1.95
		C69.12-63.39,68.96-60.64,68.85-60.22"/>
	
		<path style="clip-path:url(#SVGID_00000093174781446991488880000011140084546234625959_);fill:none;stroke:#231F20;stroke-width:0.393;stroke-linecap:round;stroke-linejoin:round;stroke-miterlimit:10;" d="
		M68.85-60.22h-0.01c-0.66-0.65-1.41-1.24-2.07-1.92c-0.35-0.37-0.68-0.78-0.94-1.24c-1.11-1.93,0.29-4.39,2.01-2.81
		c0.55,0.5,0.87,1.2,1.06,1.95C69.12-63.39,68.96-60.64,68.85-60.22z"/>
	<path style="clip-path:url(#SVGID_00000093174781446991488880000011140084546234625959_);fill:#83C455;" d="M81.77-26.2
		c0.61,0.07,1.09,0.43,1.57,0.77c0.68,0.49,1.34,0.94,2.13,1.23c-0.57-0.31-1.57,0.76-1.99,1.03c-0.9,0.57-1.97,1.19-3.06,1.22
		c-0.76,0.03-1.63-0.16-2.28-0.56c-1.2-0.75-1.98-2.29-2.24-2.29"/>
	
		<path style="clip-path:url(#SVGID_00000093174781446991488880000011140084546234625959_);fill:none;stroke:#231F20;stroke-width:0.393;stroke-linecap:round;stroke-linejoin:round;stroke-miterlimit:10;" d="
		M81.77-26.2c0.61,0.07,1.09,0.43,1.57,0.77c0.68,0.49,1.34,0.94,2.13,1.23c-0.57-0.31-1.57,0.76-1.99,1.03
		c-0.9,0.57-1.97,1.19-3.06,1.22c-0.76,0.03-1.63-0.16-2.28-0.56c-1.2-0.75-1.98-2.29-2.24-2.29"/>
	
		<polygon style="clip-path:url(#SVGID_00000093174781446991488880000011140084546234625959_);fill:none;stroke:#231F20;stroke-width:0.393;stroke-linecap:round;stroke-linejoin:round;stroke-miterlimit:10;" points="
		68.85,-60.22 68.85,-60.21 68.84,-60.22 	"/>
	<path style="clip-path:url(#SVGID_00000093174781446991488880000011140084546234625959_);fill:#67B350;" d="M77.76-30.98
		c0.9-1.22,2.28-1.62,3.7-1.79c0.69-0.08,1.38,0.01,2.06-0.14c0.43-0.1,0.85-0.35,1.26-0.43c-0.27,0.23-0.4,0.66-0.5,1
		c-0.26,0.84-0.46,1.66-0.81,2.47c-0.54,1.28-0.89,2.95-1.95,3.92c-0.93,0.85-1.54,0.93-2.94,1c-0.85,0.04-1.72,0.12-2.57,0.04
		c0,0,0.16-2.22,0.32-2.98C76.54-28.94,77.13-30.12,77.76-30.98"/>
	
		<path style="clip-path:url(#SVGID_00000093174781446991488880000011140084546234625959_);fill:none;stroke:#231F20;stroke-width:0.393;stroke-linecap:round;stroke-linejoin:round;stroke-miterlimit:10;" d="
		M77.76-30.98c0.9-1.22,2.28-1.62,3.7-1.79c0.69-0.08,1.38,0.01,2.06-0.14c0.43-0.1,0.85-0.35,1.26-0.43c-0.27,0.23-0.4,0.66-0.5,1
		c-0.26,0.84-0.46,1.66-0.81,2.47c-0.54,1.28-0.89,2.95-1.95,3.92c-0.93,0.85-1.54,0.93-2.94,1c-0.85,0.04-1.72,0.12-2.57,0.04
		c0,0,0.16-2.22,0.32-2.98C76.54-28.94,77.13-30.12,77.76-30.98z"/>
	
		<path style="clip-path:url(#SVGID_00000093174781446991488880000011140084546234625959_);fill:none;stroke:#231F20;stroke-width:0.393;stroke-linecap:round;stroke-linejoin:round;stroke-miterlimit:10;" d="
		M76.01-24.91c-2.12,2.12-4.09,1.86-4.94,2.67"/>
	
		<path style="clip-path:url(#SVGID_00000093174781446991488880000011140084546234625959_);fill:none;stroke:#231F20;stroke-width:0.393;stroke-linecap:round;stroke-linejoin:round;stroke-miterlimit:10;" d="
		M79.53-28.43c-1.02,1.04-1.82,2.44-3.52,3.52"/>
	
		<path style="clip-path:url(#SVGID_00000093174781446991488880000011140084546234625959_);fill:none;stroke:#231F20;stroke-width:0.393;stroke-linecap:round;stroke-linejoin:round;stroke-miterlimit:10;" d="
		M71.94-36.41c1.13,0.85,3.29,3.5,2.24,5.04"/>
	<path style="clip-path:url(#SVGID_00000093174781446991488880000011140084546234625959_);fill:#231F20;" d="M68.57-217.2
		c-0.17,0.02,0.5-2.33,1.63-2.69c1.71-0.54,4.22,0.28,4.37,1.68c0.15,1.4,0.1,2.42,0.1,2.42S72.8-217.82,68.57-217.2"/>
	<path style="clip-path:url(#SVGID_00000093174781446991488880000011140084546234625959_);fill:#231F20;" d="M20.39-219.7
		c-0.1,0.14-0.71-2.8,0.23-3.52c1.43-1.09,4.06-1.17,4.68,0.09c0.61,1.26,0.92,2.24,0.92,2.24S22.76-223.06,20.39-219.7"/>
	<path style="clip-path:url(#SVGID_00000093174781446991488880000011140084546234625959_);fill:#231F20;" d="M-0.04-172.18
		c0,0.62-0.5,1.12-1.12,1.12c-0.62,0-1.12-0.5-1.12-1.12s0.5-1.12,1.12-1.12C-0.54-173.3-0.04-172.8-0.04-172.18"/>
	
		<path style="clip-path:url(#SVGID_00000093174781446991488880000011140084546234625959_);fill:none;stroke:#231F20;stroke-width:0.393;stroke-linecap:round;stroke-linejoin:round;stroke-miterlimit:10;" d="
		M-3.37-75.04c0-5.69,5.62-6.41,5.62-6.41c-4.76,0-5.62-7.03-5.62-7.03S-4.24-81.46-9-81.46C-9-81.46-3.37-80.73-3.37-75.04z"/>
	<path style="clip-path:url(#SVGID_00000093174781446991488880000011140084546234625959_);fill:#231F20;" d="M2.25-71.9
		c0-2.66,2.62-2.99,2.62-2.99c-2.22,0-2.62-3.28-2.62-3.28s-0.4,3.28-2.62,3.28C-0.38-74.9,2.25-74.56,2.25-71.9"/>
	<path style="clip-path:url(#SVGID_00000093174781446991488880000011140084546234625959_);fill:#231F20;" d="M2.25-85.2
		c0,0.44-0.35,0.79-0.79,0.79c-0.44,0-0.79-0.35-0.79-0.79s0.35-0.79,0.79-0.79C1.89-85.99,2.25-85.63,2.25-85.2"/>
	<path style="clip-path:url(#SVGID_00000093174781446991488880000011140084546234625959_);fill:#231F20;" d="M4.98-78.9
		c0,0.25-0.2,0.45-0.45,0.45c-0.25,0-0.45-0.2-0.45-0.45s0.2-0.45,0.45-0.45C4.78-79.35,4.98-79.15,4.98-78.9"/>
	<path style="clip-path:url(#SVGID_00000093174781446991488880000011140084546234625959_);fill:#231F20;" d="M4.56-169.28
		c0,0.25-0.2,0.45-0.45,0.45c-0.25,0-0.45-0.2-0.45-0.45s0.2-0.45,0.45-0.45C4.36-169.73,4.56-169.53,4.56-169.28"/>
	<path style="clip-path:url(#SVGID_00000093174781446991488880000011140084546234625959_);fill:#231F20;" d="M-2.86-165.68
		c0-0.47,0.38-0.85,0.85-0.85c0.47,0,0.85,0.38,0.85,0.85s-0.38,0.85-0.85,0.85C-2.48-164.83-2.86-165.21-2.86-165.68"/>
	<path style="clip-path:url(#SVGID_00000093174781446991488880000011140084546234625959_);fill:#231F20;" d="M84.11-146.05
		c0-5.69,5.62-6.42,5.62-6.42c-4.76,0-5.62-7.03-5.62-7.03s-0.87,7.03-5.62,7.03C78.49-152.46,84.11-151.74,84.11-146.05"/>
	
		<path style="clip-path:url(#SVGID_00000093174781446991488880000011140084546234625959_);fill:none;stroke:#231F20;stroke-width:0.526;stroke-linecap:round;stroke-linejoin:round;stroke-miterlimit:10;" d="
		M84.11-146.05c0-5.69,5.62-6.42,5.62-6.42c-4.76,0-5.62-7.03-5.62-7.03s-0.87,7.03-5.62,7.03
		C78.49-152.46,84.11-151.74,84.11-146.05z"/>
	
		<path style="clip-path:url(#SVGID_00000093174781446991488880000011140084546234625959_);fill:none;stroke:#231F20;stroke-width:0.393;stroke-linecap:round;stroke-linejoin:round;stroke-miterlimit:10;" d="
		M78.49-155.42c0-2.66,2.62-2.99,2.62-2.99c-2.22,0-2.62-3.28-2.62-3.28s-0.4,3.28-2.62,3.28
		C75.86-158.41,78.49-158.07,78.49-155.42z"/>
	<path style="clip-path:url(#SVGID_00000093174781446991488880000011140084546234625959_);fill:#231F20;" d="M92.9-156.21
		c0,0.44-0.35,0.79-0.79,0.79c-0.44,0-0.79-0.35-0.79-0.79s0.35-0.79,0.79-0.79C92.54-157,92.9-156.64,92.9-156.21"/>
	<path style="clip-path:url(#SVGID_00000093174781446991488880000011140084546234625959_);fill:#231F20;" d="M92.08-146.05
		c0,0.25-0.2,0.45-0.45,0.45c-0.25,0-0.45-0.2-0.45-0.45s0.2-0.45,0.45-0.45C91.88-146.5,92.08-146.3,92.08-146.05"/>
	<path style="clip-path:url(#SVGID_00000093174781446991488880000011140084546234625959_);fill:#231F20;" d="M81.13-147.15
		c0,0.61-0.49,1.1-1.1,1.1c-0.6,0-1.1-0.49-1.1-1.1c0-0.61,0.49-1.1,1.1-1.1C80.64-148.24,81.13-147.75,81.13-147.15"/>
	
		<path style="clip-path:url(#SVGID_00000093174781446991488880000011140084546234625959_);fill:none;stroke:#231F20;stroke-width:0.393;stroke-linecap:round;stroke-linejoin:round;stroke-miterlimit:10;" d="
		M67.77-19.29c-14.02,10-29.13,7.15-33.14,18.39"/>
	
		<path style="clip-path:url(#SVGID_00000093174781446991488880000011140084546234625959_);fill:none;stroke:#231F20;stroke-width:0.393;stroke-linecap:round;stroke-linejoin:round;stroke-miterlimit:10;" d="
		M85.42-37.72c1.76-3.07,3.82-5.8,6.21-7.71"/>
	
		<path style="clip-path:url(#SVGID_00000093174781446991488880000011140084546234625959_);fill:none;stroke:#231F20;stroke-width:0.393;stroke-linecap:round;stroke-linejoin:round;stroke-miterlimit:10;" d="
		M85.42-37.7c-0.89,1.54-1.7,3.18-2.43,4.84"/>
	<path style="clip-path:url(#SVGID_00000093174781446991488880000011140084546234625959_);fill:#A6CE38;" d="M85.42-37.72
		c0,0.01-0.01,0.01-0.01,0.02c0,0-4.73-7.33-1.79-15.29C83.62-52.99,88.31-44.79,85.42-37.72"/>
	
		<path style="clip-path:url(#SVGID_00000093174781446991488880000011140084546234625959_);fill:none;stroke:#231F20;stroke-width:0.393;stroke-linecap:round;stroke-linejoin:round;stroke-miterlimit:10;" d="
		M85.42-37.72c0,0.01-0.01,0.01-0.01,0.02c0,0-4.73-7.33-1.79-15.29C83.62-52.99,88.31-44.79,85.42-37.72z"/>
	<path style="clip-path:url(#SVGID_00000093174781446991488880000011140084546234625959_);fill:#A6CE38;" d="M99.03-39.68
		c0,0-7.34,5.96-14.8,4.24C84.23-35.43,90.7-41.29,99.03-39.68"/>
	
		<path style="clip-path:url(#SVGID_00000093174781446991488880000011140084546234625959_);fill:none;stroke:#231F20;stroke-width:0.393;stroke-linecap:round;stroke-linejoin:round;stroke-miterlimit:10;" d="
		M99.03-39.68c0,0-7.34,5.96-14.8,4.24C84.23-35.43,90.7-41.29,99.03-39.68z"/>
	<path style="clip-path:url(#SVGID_00000093174781446991488880000011140084546234625959_);fill:#A6CE38;" d="M98.48-44.62
		c0,0-5.13,4.27-10.41,3.13C88.07-41.49,92.58-45.68,98.48-44.62"/>
	
		<path style="clip-path:url(#SVGID_00000093174781446991488880000011140084546234625959_);fill:none;stroke:#231F20;stroke-width:0.393;stroke-linecap:round;stroke-linejoin:round;stroke-miterlimit:10;" d="
		M98.48-44.62c0,0-5.13,4.27-10.41,3.13C88.07-41.49,92.58-45.68,98.48-44.62z"/>
	<path style="clip-path:url(#SVGID_00000093174781446991488880000011140084546234625959_);fill:#A6CE38;" d="M89.49-43.58
		c0,0-2.39-5.67,0.63-10.85C90.12-54.43,92.37-48.14,89.49-43.58"/>
	
		<path style="clip-path:url(#SVGID_00000093174781446991488880000011140084546234625959_);fill:none;stroke:#231F20;stroke-width:0.393;stroke-linecap:round;stroke-linejoin:round;stroke-miterlimit:10;" d="
		M89.49-43.58c0,0-2.39-5.67,0.63-10.85C90.12-54.43,92.37-48.14,89.49-43.58z"/>
	
		<path style="clip-path:url(#SVGID_00000093174781446991488880000011140084546234625959_);fill:none;stroke:#231F20;stroke-width:0.393;stroke-linecap:round;stroke-linejoin:round;stroke-miterlimit:10;" d="
		M76.28-16.59c0,0,0.21-3.16,1.36-6.11"/>
	
		<path style="clip-path:url(#SVGID_00000093174781446991488880000011140084546234625959_);fill:none;stroke:#231F20;stroke-width:0.393;stroke-linecap:round;stroke-linejoin:round;stroke-miterlimit:10;" d="
		M5.63-32.86c-2.19-4.96-5.05-9.69-8.65-12.57"/>
	<path style="clip-path:url(#SVGID_00000093174781446991488880000011140084546234625959_);fill:#A6CE38;" d="M3.21-37.7
		C0.31-44.77,5-52.99,5-52.99C7.93-45.03,3.21-37.7,3.21-37.7"/>
	
		<path style="clip-path:url(#SVGID_00000093174781446991488880000011140084546234625959_);fill:none;stroke:#231F20;stroke-width:0.393;stroke-linecap:round;stroke-linejoin:round;stroke-miterlimit:10;" d="
		M3.21-37.7C0.31-44.77,5-52.99,5-52.99C7.93-45.03,3.21-37.7,3.21-37.7z"/>
	<path style="clip-path:url(#SVGID_00000093174781446991488880000011140084546234625959_);fill:#A6CE38;" d="M4.39-35.43
		c-7.45,1.71-14.8-4.24-14.8-4.24C-2.08-41.29,4.39-35.43,4.39-35.43"/>
	
		<path style="clip-path:url(#SVGID_00000093174781446991488880000011140084546234625959_);fill:none;stroke:#231F20;stroke-width:0.393;stroke-linecap:round;stroke-linejoin:round;stroke-miterlimit:10;" d="
		M4.39-35.43c-7.45,1.71-14.8-4.24-14.8-4.24C-2.08-41.29,4.39-35.43,4.39-35.43z"/>
	<path style="clip-path:url(#SVGID_00000093174781446991488880000011140084546234625959_);fill:#A6CE38;" d="M0.55-41.49
		c-5.28,1.14-10.41-3.13-10.41-3.13C-3.96-45.68,0.55-41.49,0.55-41.49"/>
	
		<path style="clip-path:url(#SVGID_00000093174781446991488880000011140084546234625959_);fill:none;stroke:#231F20;stroke-width:0.393;stroke-linecap:round;stroke-linejoin:round;stroke-miterlimit:10;" d="
		M0.55-41.49c-5.28,1.14-10.41-3.13-10.41-3.13C-3.96-45.68,0.55-41.49,0.55-41.49z"/>
	<path style="clip-path:url(#SVGID_00000093174781446991488880000011140084546234625959_);fill:#A6CE38;" d="M-0.87-43.58
		C-3.75-48.14-1.5-54.43-1.5-54.43C1.52-49.25-0.87-43.58-0.87-43.58"/>
	
		<path style="clip-path:url(#SVGID_00000093174781446991488880000011140084546234625959_);fill:none;stroke:#231F20;stroke-width:0.393;stroke-linecap:round;stroke-linejoin:round;stroke-miterlimit:10;" d="
		M-0.87-43.58C-3.75-48.14-1.5-54.43-1.5-54.43C1.52-49.25-0.87-43.58-0.87-43.58z"/>
	
		<path style="clip-path:url(#SVGID_00000093174781446991488880000011140084546234625959_);fill:none;stroke:#231F20;stroke-width:0.393;stroke-linecap:round;stroke-linejoin:round;stroke-miterlimit:10;" d="
		M12.35-16.59c0,0-0.21-3.16-1.36-6.11"/>
	<path style="clip-path:url(#SVGID_00000093174781446991488880000011140084546234625959_);fill:#231F20;" d="M57.56-122.96
		c0.46-1.62,0.04-3.29-0.98-4.48c-0.6-0.71-1.41-1.25-2.37-1.52c-0.33-0.09-0.67-0.15-1-0.17c1.99,1.04,3.05,3.37,2.42,5.62
		c-0.63,2.25-2.76,3.68-5,3.53c0.29,0.15,0.61,0.28,0.94,0.37c0.56,0.16,1.12,0.21,1.67,0.17
		C55.22-119.58,56.99-120.94,57.56-122.96"/>
	
		<path style="clip-path:url(#SVGID_00000093174781446991488880000011140084546234625959_);fill:none;stroke:#231F20;stroke-width:0.393;stroke-linecap:round;stroke-linejoin:round;stroke-miterlimit:10;" d="
		M44.7-48.11c1.8,0,2.82,1.18,2.82,2.62c0,1.7-1.38,3.09-3.09,3.09c-2.01,0-3.63-1.63-3.63-3.63c0-2.36,1.91-4.27,4.27-4.27
		c2.78,0,5.02,2.25,5.02,5.03c0,3.27-2.65,5.91-5.91,5.91c-3.84,0-6.96-3.11-6.96-6.96c0-4.52,3.66-8.18,8.18-8.18
		c5.32,0,9.04,4.18,9.04,9.49c0,5.66-4.09,9.88-10.34,9.88c-5.16,0-10.93-3.75-10.93-11.74c0-7.93,6.05-12.42,11.43-13.12"/>
	
		<polyline style="clip-path:url(#SVGID_00000093174781446991488880000011140084546234625959_);fill:none;stroke:#231F20;stroke-width:0.393;stroke-linecap:round;stroke-linejoin:round;stroke-miterlimit:10;" points="
		44.61,-60 44.61,-60 44.61,-29.35 54.46,-29.35 	"/>
	<path style="clip-path:url(#SVGID_00000093174781446991488880000011140084546234625959_);fill:#67B350;" d="M20.39-60.48
		c0,0,1.57-0.86,3.14-0.89"/>
	
		<path style="clip-path:url(#SVGID_00000093174781446991488880000011140084546234625959_);fill:none;stroke:#231F20;stroke-width:0.393;stroke-linecap:round;stroke-linejoin:round;stroke-miterlimit:10;" d="
		M20.39-60.48c0,0,1.57-0.86,3.14-0.89"/>
	<path style="clip-path:url(#SVGID_00000093174781446991488880000011140084546234625959_);fill:#67B350;" d="M68.42-60.48
		c0,0-1.57-0.86-3.13-0.89"/>
	
		<path style="clip-path:url(#SVGID_00000093174781446991488880000011140084546234625959_);fill:none;stroke:#231F20;stroke-width:0.393;stroke-linecap:round;stroke-linejoin:round;stroke-miterlimit:10;" d="
		M68.42-60.48c0,0-1.57-0.86-3.13-0.89"/>
	<path style="clip-path:url(#SVGID_00000093174781446991488880000011140084546234625959_);fill:#231F20;" d="M8.33,6.62l1.23,0.19
		c0.55,0.09,1.17,0.04,2.03-1.01c0.08-0.08,0.11-0.11,0.17-0.09l0.29,0.14c0.06,0.03,0.08,0.08,0.06,0.12
		c-0.64,1.02-1.01,1.93-1.32,3.01c-0.03,0.09-0.08,0.1-0.16,0.09l-0.3-0.06C10.28,9,10.27,8.95,10.27,8.84
		c0.04-1-0.49-1.42-1.52-1.58l-0.66-0.1l-2.26,4.55l3.03,0.47c1.23,0.19,2.58-1,3.44-1.74c0.08-0.07,0.14-0.08,0.2-0.04l0.18,0.17
		c0.04,0.04,0.07,0.08,0,0.21l-1.16,2.16c-0.11,0.22-0.2,0.24-0.39,0.21c-0.17-0.03-1.29-0.22-2.66-0.44
		c-1.39-0.22-3.03-0.49-4.26-0.68c-0.73-0.11-1.19-0.17-1.49-0.21c-0.29-0.03-0.41-0.03-0.48-0.04c-0.11-0.02-0.15-0.06-0.1-0.18
		l0.1-0.32c0.05-0.09,0.07-0.12,0.15-0.11l0.43,0.07c0.58,0.09,0.97-0.21,1.21-0.69l3.56-7.12c0.4-0.81-0.1-1.13-0.48-1.19
		L6.55,2.16C6.49,2.15,6.46,2.11,6.51,2.02l0.15-0.36c0.05-0.09,0.08-0.1,0.21-0.08C7.06,1.61,7.53,1.73,9.2,1.99
		c3.04,0.47,4.57,0.66,4.98,0.73c0.24,0.04,0.26,0.09,0.28,0.35l0.17,2.24c0.01,0.07-0.01,0.09-0.08,0.12L14.32,5.5
		c-0.08,0.02-0.13,0-0.21-0.11l-1.46-2.17c-0.06-0.11-0.16-0.14-0.27-0.15l-2.1-0.32L8.33,6.62z"/>
	<path style="clip-path:url(#SVGID_00000093174781446991488880000011140084546234625959_);fill:#231F20;" d="M14.01,13.54
		c-0.13-0.01-0.18-0.1-0.12-0.22l1.34-2.9c0.43-0.95,0.95-1.96,0.96-2.2C16.2,8.11,16.18,8,16.03,7.98
		c-0.21-0.02-1.04,0.7-1.18,0.87c-0.05,0.06-0.12,0.05-0.18-0.02l-0.16-0.18c-0.04-0.05-0.05-0.1-0.02-0.15
		c0.28-0.36,1.56-1.62,2.83-1.49c0.68,0.07,0.86,0.33,0.83,0.71c-0.05,0.48-1.09,2.18-1.25,2.5l0.15,0.13
		c0.76-1.03,2.22-3.14,3.72-2.99c0.52,0.05,0.96,0.5,0.92,0.88c-0.05,0.48-0.83,1.95-1.07,2.43l0.13,0.13
		c0.99-1.2,2.32-3.2,3.88-3.04c0.67,0.07,0.91,0.69,0.88,0.99c-0.05,0.52-0.61,1.7-1.12,2.79c-0.41,0.87-0.77,1.54-0.79,1.76
		c0,0.13,0.06,0.23,0.17,0.24c0.38,0.04,1.15-0.89,1.24-1.01c0.06-0.07,0.1-0.07,0.13-0.05l0.21,0.18c0.06,0.06,0.05,0.1,0,0.21
		s-1.34,1.84-3.09,1.66c-0.52-0.05-0.68-0.39-0.67-0.65c0.01-0.3,0.39-1.16,1.14-2.64c0.63-1.25,0.81-1.68,0.84-1.97
		c0.02-0.17-0.06-0.31-0.25-0.33c-0.25-0.03-1.49,1.2-2.66,2.62c-0.13,0.16-0.41,0.54-0.65,1.07l-0.64,1.35
		c-0.04,0.08-0.11,0.08-0.23,0.07l-1.35-0.14c-0.14-0.01-0.2-0.08-0.14-0.22l1.22-2.54c0.51-1.05,0.94-1.99,0.97-2.24
		c0.02-0.17-0.01-0.32-0.24-0.34c-0.27-0.03-1.5,1.13-2.54,2.42c-0.24,0.28-0.52,0.7-0.8,1.25l-0.67,1.34
		c-0.04,0.09-0.12,0.1-0.23,0.09L14.01,13.54z"/>
	<path style="clip-path:url(#SVGID_00000093174781446991488880000011140084546234625959_);fill:#231F20;" d="M31.8,6.2
		c0.03-0.01,0.07-0.03,0.1-0.03c0.05,0,0.08,0.04,0.08,0.07c0,0.03-0.04,0.08-0.06,0.12l-0.97,1.83c0.15-0.02,0.37-0.01,0.53,0
		c1.53,0.09,2.37,1.06,2.29,2.37c-0.07,1.2-0.64,2.3-2.15,3.27c-0.85,0.54-2.15,0.93-3.45,1l-1.2,3.06
		c-0.32,0.81-0.21,1.08,0.39,1.11l0.45,0.03c0.08,0,0.11,0.07,0.09,0.13l-0.11,0.34c-0.02,0.05-0.07,0.09-0.2,0.08
		c-0.18-0.01-0.65-0.09-1.99-0.16c-1.48-0.08-1.92-0.06-2.09-0.07c-0.1-0.01-0.13-0.04-0.1-0.13l0.1-0.32
		c0.02-0.06,0.06-0.12,0.13-0.12l0.37,0.02c0.49,0.03,0.91-0.3,1.28-1.19l3.42-8.31c-0.76,0.15-1.58,0.79-1.86,1.12
		c-0.05,0.06-0.12,0.07-0.18,0.02l-0.15-0.15c-0.06-0.05-0.02-0.13,0.01-0.18c0.38-0.46,1.21-1.35,2.56-1.74l0.57-1.6
		c0.04-0.11,0.11-0.17,0.3-0.19L31.8,6.2z M28.43,14.25c1.32-0.13,3.36-1.41,3.47-3.38c0.08-1.39-0.42-1.85-0.87-1.87
		c-0.11-0.01-0.26-0.01-0.42,0.01L28.43,14.25z"/>
	<path style="clip-path:url(#SVGID_00000093174781446991488880000011140084546234625959_);fill:#231F20;" d="M34.42,12.88
		c0.03-1.29,0.43-2.62,1.35-3.57c0.67-0.67,1.44-0.89,2.31-0.87c0.86,0.02,2.24,0.46,2.19,2.4c-0.02,0.94-0.4,2.62-1.44,3.67
		c-0.64,0.65-1.35,0.89-2.37,0.87C35.54,15.35,34.37,14.68,34.42,12.88 M37.95,12.9c0.52-0.91,1.03-2.26,1.05-2.85
		c0.01-0.38-0.14-0.69-0.57-0.7c-0.61-0.01-1.08,0.53-1.83,1.81c-0.57,0.94-0.85,1.91-0.86,2.57c-0.01,0.32,0.17,0.71,0.54,0.72
		C36.74,14.45,37.26,14.13,37.95,12.9"/>
	<path style="clip-path:url(#SVGID_00000093174781446991488880000011140084546234625959_);fill:#231F20;" d="M45.01,8.65
		c0.26,0,0.53-0.04,0.8-0.06c0.27-0.04,0.53-0.06,0.75-0.06c0.21,0,0.32,0.12,0.17,0.33c-0.42,0.57-1.49,2.5-1.47,3.98
		c0.01,0.54,0.35,1.11,0.83,1.12c0.41-0.01,0.92-0.18,1.36-0.72c0.24-0.29,0.48-1.08,0.59-2.12c0.04-0.46,0-1.26,0.16-1.92
		c0.1-0.42,0.6-0.57,0.92-0.57c0.37-0.01,0.64,0.18,0.65,0.44c0.01,0.45-0.35,1.08-0.57,1.93c-0.13,0.54-0.33,1.41-0.32,1.79
		c0.01,0.57,0.27,1.13,0.99,1.12c1.04-0.02,1.87-1.15,1.84-2.52c-0.01-0.72-0.21-1.32-0.41-1.49c-0.16-0.12-0.38-0.46-0.38-0.71
		c-0.01-0.42,0.3-0.79,0.77-0.8c0.78-0.01,1.29,0.54,1.31,1.75c0.02,1.2-0.55,2.66-1.31,3.76c-0.56,0.81-1.17,1.49-2.37,1.51
		c-1.07,0.02-1.42-0.89-1.56-1.6c-0.42,0.58-1.39,1.65-2.61,1.67c-1.05,0.02-1.62-0.63-1.64-1.71c-0.02-1.4,1.41-3.5,2.24-4.43
		l-0.08-0.05c-0.19,0.1-0.77,0.75-1.68,0.76l-1.25,0.02c-0.3,0-0.59,0.09-0.6,0.31c-0.01,0.29,0.39,0.43,0.57,0.49
		c0.11,0.05,0.35,0.19,0.36,0.68c0.01,0.35-0.21,0.67-0.71,0.68c-0.45,0.01-0.89-0.53-0.9-1.39c-0.01-0.7,0.32-1.15,0.68-1.58
		c0.38-0.44,0.71-0.57,1.52-0.58L45.01,8.65z"/>
	<path style="clip-path:url(#SVGID_00000093174781446991488880000011140084546234625959_);fill:#231F20;" d="M58.93,13.19
		c0.07,0.04,0.07,0.09,0.04,0.16c-0.25,0.59-1.39,1.68-2.95,1.77c-1.08,0.06-1.9-0.54-1.97-1.67c-0.07-1.18,0.34-2.9,1.69-4.18
		c0.74-0.72,1.66-1.22,2.6-1.27c0.88-0.05,1.27,0.42,1.31,1.03c0.05,0.89-0.44,1.58-1.33,2.16c-0.85,0.54-1.7,0.75-2.3,0.84
		c-0.05,0.15-0.09,0.57-0.07,1.01c0.03,0.56,0.38,1.02,0.92,0.99c0.78-0.05,1.33-0.51,1.67-0.93c0.03-0.05,0.07-0.08,0.12-0.06
		L58.93,13.19z M57.52,10.7c0.24-0.25,0.46-0.81,0.43-1.34c-0.02-0.26-0.1-0.54-0.46-0.52c-0.61,0.03-1.21,1.53-1.38,2.57
		C56.38,11.42,57.08,11.17,57.52,10.7"/>
	<path style="clip-path:url(#SVGID_00000093174781446991488880000011140084546234625959_);fill:#231F20;" d="M61.05,14.64
		c-0.11,0.01-0.18-0.05-0.16-0.13l0.54-2.64c0.19-0.92,0.55-2.53,0.52-2.83c-0.01-0.16-0.14-0.29-0.3-0.28
		c-0.25,0.02-0.78,0.6-0.97,0.97c-0.05,0.1-0.12,0.12-0.18,0.08l-0.17-0.1c-0.05-0.03-0.05-0.07-0.02-0.19
		c0.21-0.48,1.02-1.74,2.4-1.86c0.62-0.05,0.86,0.26,0.88,0.57c0.02,0.29-0.21,1.09-0.5,2.16l0.18,0.08
		c0.32-0.91,1.11-2.95,2.27-3.05c0.46-0.04,0.94,0.27,0.98,0.78c0.05,0.56-0.34,1.07-0.63,1.1c-0.21,0.02-0.39,0-0.54-0.08
		c-0.13-0.07-0.26-0.17-0.46-0.15c-0.49,0.04-1.24,1.37-1.52,2.22c-0.13,0.4-0.26,0.87-0.4,1.48l-0.37,1.65
		c-0.03,0.08-0.1,0.12-0.2,0.13L61.05,14.64z"/>
	<path style="clip-path:url(#SVGID_00000093174781446991488880000011140084546234625959_);fill:#231F20;" d="M71.77,11.95
		c0.07,0.04,0.07,0.09,0.05,0.16c-0.22,0.6-1.29,1.75-2.85,1.93c-1.08,0.12-1.93-0.44-2.06-1.56c-0.13-1.17,0.18-2.91,1.45-4.26
		c0.7-0.76,1.58-1.31,2.52-1.42c0.87-0.1,1.29,0.35,1.36,0.95c0.1,0.89-0.35,1.6-1.2,2.23c-0.82,0.59-1.65,0.85-2.25,0.97
		c-0.05,0.15-0.06,0.57-0.01,1.01c0.06,0.56,0.44,0.99,0.97,0.93c0.78-0.09,1.3-0.58,1.62-1.02c0.03-0.05,0.07-0.09,0.12-0.06
		L71.77,11.95z M70.22,9.54c0.23-0.27,0.42-0.84,0.36-1.36c-0.03-0.25-0.12-0.53-0.49-0.49c-0.6,0.07-1.12,1.59-1.24,2.65
		C69.13,10.33,69.82,10.04,70.22,9.54"/>
	<path style="clip-path:url(#SVGID_00000093174781446991488880000011140084546234625959_);fill:#231F20;" d="M80.02,1.45
		c0.22-0.03,0.29,0.12,0.25,0.3c-0.12,0.58-1.36,8.28-1.44,9.3c-0.03,0.46,0.01,0.69,0.21,0.66c0.22-0.03,0.72-0.8,0.8-0.91
		c0.05-0.07,0.1-0.08,0.16-0.04l0.22,0.16c0.04,0.03,0.06,0.09,0.02,0.16c-0.09,0.16-0.88,1.57-2.45,1.8
		c-0.4,0.06-0.63-0.1-0.67-0.38c-0.06-0.41,0.08-1.29,0.26-2.2l-0.2-0.07c-0.58,1.34-1.34,2.94-2.57,3.12
		c-0.79,0.12-1.37-0.67-1.47-1.3c-0.15-1,0.15-2.8,1.22-4.41c0.39-0.56,1.12-1.47,2.2-1.63c0.44-0.07,0.94,0.04,1.28,0.33l0.4-3.38
		c0.05-0.35-0.13-0.64-0.54-0.58l-0.46,0.07c-0.13,0.02-0.15-0.04-0.14-0.09l0.01-0.37c0.01-0.06,0.03-0.1,0.25-0.13L80.02,1.45z
		 M76.54,6.6c-0.84,0.12-1.65,3.78-1.48,4.98c0.06,0.38,0.24,0.53,0.46,0.5c0.32-0.05,0.85-1.14,1.31-2.07
		c0.35-0.68,0.74-1.87,0.65-2.48C77.39,6.94,77.07,6.52,76.54,6.6"/>
	<path style="clip-path:url(#SVGID_00000093174781446991488880000011140084546234625959_);fill:#231F20;" d="M18.9,33.01l1.54,0.13
		c1.1,0.1,1.74-0.39,2.16-1.41c0.04-0.11,0.12-0.08,0.2-0.06l0.33,0.08c0.06,0.02,0.07,0.07,0.05,0.15l-1.36,3.88
		c-0.03,0.08-0.09,0.09-0.17,0.06l-0.32-0.05c-0.11-0.01-0.14-0.08-0.11-0.17c0.28-1.14,0-1.65-0.93-1.82l-1.62-0.27l-1.46,3.44
		c-0.41,0.95-0.14,1.17,0.38,1.23l0.48,0.05c0.11,0.01,0.15,0.08,0.13,0.14l-0.15,0.38c-0.02,0.08-0.09,0.09-0.2,0.08
		c-0.19-0.02-0.66-0.12-2.34-0.3c-1.6-0.17-2.02-0.17-2.2-0.19c-0.08-0.01-0.12-0.04-0.1-0.14l0.11-0.39
		c0.02-0.06,0.06-0.09,0.15-0.08l0.4,0.04c0.43,0.05,0.78-0.24,1.04-0.84l3.35-7.68c0.17-0.4,0.05-0.6-0.3-0.64l-0.38-0.04
		c-0.11-0.01-0.14-0.06-0.1-0.15l0.13-0.34c0.03-0.08,0.08-0.12,0.2-0.11c0.24,0.03,0.88,0.14,1.98,0.26
		c2.4,0.26,3.55,0.33,4.01,0.38c0.95,0.1,1.4-0.01,1.6,0.01c0.14,0.02,0.18,0.13,0.16,0.28c-0.03,0.41,0.04,2.33,0.05,2.51
		c0.01,0.08-0.03,0.13-0.1,0.13l-0.28,0.1c-0.08,0.02-0.14-0.02-0.19-0.13c-0.12-0.25-0.91-1.67-1.17-1.97
		c-0.26-0.25-0.17-0.21-0.74-0.3c-0.27-0.04-1.99-0.28-2.47-0.33L18.9,33.01z"/>
	<path style="clip-path:url(#SVGID_00000093174781446991488880000011140084546234625959_);fill:#231F20;" d="M24.15,39.43
		c-0.11-0.01-0.17-0.08-0.13-0.15l0.95-2.53c0.33-0.87,0.94-2.41,0.96-2.71c0.01-0.16-0.09-0.31-0.25-0.32
		c-0.25-0.02-0.87,0.47-1.11,0.8c-0.07,0.09-0.14,0.1-0.2,0.05l-0.15-0.12c-0.04-0.04-0.04-0.08,0.01-0.19
		c0.29-0.44,1.28-1.56,2.67-1.46c0.62,0.04,0.81,0.39,0.78,0.7c-0.02,0.29-0.38,1.05-0.83,2.05l0.17,0.11
		c0.46-0.85,1.56-2.74,2.72-2.65c0.46,0.03,0.88,0.42,0.84,0.92c-0.04,0.56-0.5,1-0.79,0.98c-0.21-0.01-0.38-0.06-0.52-0.17
		c-0.12-0.09-0.23-0.21-0.43-0.22c-0.49-0.03-1.44,1.16-1.85,1.95c-0.19,0.37-0.39,0.82-0.63,1.4l-0.62,1.57
		c-0.04,0.08-0.12,0.1-0.21,0.1L24.15,39.43z"/>
	<path style="clip-path:url(#SVGID_00000093174781446991488880000011140084546234625959_);fill:#231F20;" d="M35.17,38.48
		c0.06,0.05,0.06,0.1,0.02,0.16c-0.31,0.56-1.55,1.53-3.12,1.46c-1.09-0.05-1.84-0.74-1.79-1.87c0.05-1.18,0.64-2.85,2.11-3.98
		c0.81-0.64,1.77-1.04,2.71-1c0.88,0.04,1.22,0.55,1.2,1.16c-0.04,0.89-0.6,1.52-1.54,2.01c-0.9,0.46-1.77,0.58-2.38,0.6
		c-0.07,0.14-0.15,0.55-0.17,1c-0.02,0.56,0.27,1.05,0.82,1.08c0.78,0.03,1.38-0.37,1.76-0.75c0.03-0.05,0.08-0.08,0.13-0.04
		L35.17,38.48z M34.02,35.85c0.27-0.23,0.54-0.76,0.57-1.29c0.01-0.26-0.04-0.54-0.41-0.56c-0.61-0.03-1.36,1.4-1.64,2.42
		C32.81,36.46,33.54,36.28,34.02,35.85"/>
	<path style="clip-path:url(#SVGID_00000093174781446991488880000011140084546234625959_);fill:#231F20;" d="M41.53,38.61
		c0.06,0.05,0.06,0.1,0.03,0.16c-0.3,0.57-1.51,1.57-3.08,1.55c-1.08-0.02-1.86-0.69-1.84-1.82c0.02-1.18,0.56-2.86,2-4.04
		c0.79-0.66,1.74-1.09,2.68-1.07c0.88,0.02,1.24,0.52,1.23,1.12c-0.01,0.89-0.55,1.54-1.49,2.05c-0.89,0.48-1.75,0.63-2.36,0.66
		c-0.07,0.14-0.14,0.56-0.14,1c-0.01,0.56,0.3,1.04,0.85,1.05c0.78,0.01,1.36-0.41,1.74-0.8c0.03-0.05,0.08-0.08,0.13-0.05
		L41.53,38.61z M40.32,36.02c0.26-0.24,0.52-0.77,0.53-1.3c0.01-0.25-0.05-0.54-0.42-0.55c-0.61-0.01-1.32,1.43-1.57,2.47
		C39.12,36.65,39.85,36.46,40.32,36.02"/>
	<path style="clip-path:url(#SVGID_00000093174781446991488880000011140084546234625959_);fill:#231F20;" d="M51.08,29.28
		c0.22,0,0.27,0.16,0.21,0.33c-0.2,0.56-2.43,8.04-2.63,9.03c-0.09,0.45-0.08,0.69,0.12,0.68c0.22,0,0.82-0.7,0.91-0.8
		c0.06-0.07,0.11-0.07,0.16-0.02l0.19,0.19c0.03,0.03,0.05,0.1,0,0.16c-0.11,0.15-1.08,1.44-2.66,1.46
		c-0.4,0.01-0.61-0.18-0.61-0.47c-0.01-0.41,0.25-1.26,0.54-2.15l-0.19-0.09c-0.75,1.26-1.71,2.74-2.96,2.76
		c-0.8,0.01-1.28-0.84-1.29-1.48c-0.02-1.01,0.51-2.75,1.78-4.21c0.46-0.5,1.3-1.31,2.39-1.33c0.45-0.01,0.93,0.16,1.22,0.49
		l0.84-3.3c0.09-0.34-0.04-0.65-0.46-0.65L48.2,29.9c-0.13,0-0.14-0.06-0.13-0.11l0.06-0.37c0.01-0.06,0.05-0.1,0.27-0.1
		L51.08,29.28z M46.96,33.93c-0.85,0.01-2.13,3.53-2.11,4.74c0.01,0.38,0.17,0.56,0.39,0.55c0.32-0.01,0.99-1.02,1.57-1.88
		c0.44-0.63,0.98-1.76,0.97-2.38C47.76,34.38,47.5,33.92,46.96,33.93"/>
	<path style="clip-path:url(#SVGID_00000093174781446991488880000011140084546234625959_);fill:#231F20;" d="M51.01,37.81
		c-0.06-1.29,0.24-2.65,1.09-3.66c0.62-0.72,1.38-0.99,2.24-1.03c0.86-0.04,2.27,0.29,2.36,2.24c0.04,0.94-0.21,2.65-1.17,3.76
		c-0.59,0.7-1.28,0.99-2.3,1.03C52.3,40.19,51.09,39.61,51.01,37.81 M54.53,37.58c0.45-0.95,0.87-2.33,0.84-2.92
		c-0.02-0.38-0.19-0.68-0.62-0.66c-0.61,0.03-1.04,0.61-1.7,1.93c-0.5,0.98-0.71,1.97-0.68,2.62c0.01,0.32,0.22,0.69,0.59,0.68
		C53.44,39.21,53.93,38.85,54.53,37.58"/>
	<path style="clip-path:url(#SVGID_00000093174781446991488880000011140084546234625959_);fill:#231F20;" d="M58.23,39.78
		c-0.13,0.01-0.2-0.06-0.16-0.19l0.77-3.1c0.25-1.01,0.57-2.1,0.53-2.34c-0.01-0.11-0.05-0.22-0.21-0.21
		c-0.21,0.02-0.88,0.88-0.99,1.08c-0.04,0.07-0.11,0.07-0.18,0.01L57.8,34.9c-0.05-0.04-0.07-0.09-0.04-0.14
		c0.2-0.4,1.23-1.89,2.5-2c0.68-0.06,0.91,0.16,0.95,0.54c0.04,0.48-0.66,2.35-0.76,2.7l0.17,0.1c0.56-1.16,1.58-3.51,3.09-3.64
		c0.53-0.05,1.04,0.31,1.07,0.69c0.04,0.48-0.44,2.07-0.59,2.58l0.15,0.1c0.74-1.37,1.67-3.58,3.23-3.72
		c0.67-0.06,1.02,0.5,1.05,0.81c0.05,0.53-0.27,1.79-0.57,2.95c-0.24,0.93-0.46,1.66-0.44,1.88c0.03,0.13,0.1,0.22,0.21,0.21
		c0.38-0.03,0.96-1.09,1.03-1.23c0.04-0.08,0.09-0.09,0.12-0.07l0.24,0.14c0.07,0.04,0.07,0.09,0.03,0.2
		c-0.04,0.12-0.97,2.06-2.72,2.21c-0.53,0.05-0.74-0.26-0.78-0.51c-0.04-0.3,0.16-1.22,0.62-2.81c0.38-1.35,0.48-1.81,0.46-2.09
		c-0.02-0.17-0.12-0.29-0.31-0.28c-0.25,0.02-1.23,1.46-2.12,3.07c-0.1,0.18-0.3,0.6-0.44,1.18l-0.37,1.44
		c-0.02,0.08-0.09,0.1-0.21,0.12L62,39.45c-0.14,0.01-0.21-0.04-0.18-0.19l0.72-2.72c0.3-1.13,0.55-2.13,0.53-2.39
		c-0.01-0.17-0.07-0.31-0.3-0.29c-0.27,0.02-1.26,1.39-2.04,2.86c-0.18,0.32-0.38,0.79-0.55,1.38l-0.4,1.45
		c-0.02,0.1-0.1,0.12-0.21,0.13L58.23,39.78z"/>
	<path style="clip-path:url(#SVGID_00000093174781446991488880000011140084546234625959_);fill:#231F20;" d="M38.78,18.59
		c-0.11,0-0.15-0.06-0.12-0.14l0.08-0.21c0.03-0.08,0.06-0.11,0.14-0.11l1.71,0.03c0.12,0,0.15,0.12,0.09,0.24l-2.27,4.86l0.08,0.03
		c0.68-0.82,1.73-1.64,2.48-1.63c0.69,0.01,0.95,0.45,0.94,1.04c-0.01,0.77-0.49,2.08-1.83,3.38c-0.73,0.69-1.6,1.28-2.89,1.25
		c-0.55-0.01-0.9-0.41-0.89-0.91c0-0.22,0.11-0.54,0.22-0.78c1.04-2.3,2.02-4.44,2.92-6.49c0.07-0.16,0.1-0.27,0.1-0.36
		c0-0.12-0.15-0.21-0.38-0.21L38.78,18.59z M37.85,26.9c1.08,0.02,3.05-2.24,3.09-3.99c0.01-0.42-0.21-0.58-0.45-0.59
		c-0.51-0.01-1.53,0.82-2.23,1.77c-0.54,0.73-0.97,1.83-0.97,2.22C37.27,26.85,37.55,26.89,37.85,26.9"/>
	<path style="clip-path:url(#SVGID_00000093174781446991488880000011140084546234625959_);fill:#231F20;" d="M42.42,23.64
		c-0.03-0.01-0.04-0.05-0.01-0.12c0.08-0.16,0.77-1.83,1.59-1.85c0.42-0.01,0.57,0.33,0.7,1.51c0.16,1.54,0.28,3.12,0.32,3.99
		l0.05-0.01c0.37-0.61,1.15-2.23,1.33-2.88c0.06-0.23,0.19-0.6,0.18-1.18c0-0.15-0.03-0.39-0.08-0.5c-0.06-0.12-0.15-0.31-0.16-0.48
		c0-0.22,0.11-0.49,0.55-0.49c0.36-0.01,0.54,0.33,0.55,0.67c0.01,0.88-0.48,2.02-0.86,2.88c-0.57,1.31-1.95,3.74-3.11,4.91
		c-0.36,0.39-1.24,1.25-2.03,1.26c-0.53,0.01-0.76-0.31-0.77-0.62c-0.01-0.34,0.29-0.54,0.53-0.56c0.23-0.02,0.35,0.09,0.5,0.21
		c0.1,0.08,0.23,0.16,0.34,0.16c0.13,0,0.36-0.09,0.63-0.29c0.73-0.57,1.25-1.36,1.46-1.85c0.1-0.26,0.11-0.56,0.1-0.76
		c-0.03-0.31-0.35-3.98-0.51-4.68c-0.06-0.26-0.13-0.38-0.24-0.37c-0.24,0-0.66,0.81-0.77,1.11c-0.03,0.05-0.08,0.06-0.12,0.04
		L42.42,23.64z"/>
	
		<path style="clip-path:url(#SVGID_00000093174781446991488880000011140084546234625959_);fill:none;stroke:#111517;stroke-width:0.526;stroke-miterlimit:10;" d="
		M76.98,21.67c-8.76,1.3-17.69,2.11-26.74,2.38"/>
	
		<path style="clip-path:url(#SVGID_00000093174781446991488880000011140084546234625959_);fill:none;stroke:#111517;stroke-width:0.526;stroke-miterlimit:10;" d="
		M33.83,23.96c-8.25-0.34-16.39-1.11-24.4-2.31"/>
</g>
</svg>
