<?xml version="1.0" encoding="utf-8"?>
<!-- Generator: Adobe Illustrator 28.0.0, SVG Export Plug-In . SVG Version: 6.00 Build 0)  -->
<svg version="1.1" id="Layer_1" xmlns="http://www.w3.org/2000/svg" xmlns:xlink="http://www.w3.org/1999/xlink" x="0px" y="0px"
	 viewBox="0 0 126 206" style="enable-background:new 0 0 126 206;" xml:space="preserve">
<style type="text/css">
	.st0{clip-path:url(#SVGID_00000040558273466840441780000007844473128858809523_);fill:#B8BADD;}
	
		.st1{clip-path:url(#SVGID_00000040558273466840441780000007844473128858809523_);fill:none;stroke:#231F20;stroke-width:2.997;stroke-linecap:round;stroke-linejoin:round;stroke-miterlimit:10;}
	.st2{clip-path:url(#SVGID_00000040558273466840441780000007844473128858809523_);fill:#FDE0CD;}
	
		.st3{clip-path:url(#SVGID_00000040558273466840441780000007844473128858809523_);fill:none;stroke:#231F20;stroke-width:0.72;stroke-linecap:round;stroke-linejoin:round;stroke-miterlimit:10;}
	.st4{clip-path:url(#SVGID_00000040558273466840441780000007844473128858809523_);fill:#231F20;}
	.st5{clip-path:url(#SVGID_00000040558273466840441780000007844473128858809523_);fill:#83C455;}
	
		.st6{clip-path:url(#SVGID_00000040558273466840441780000007844473128858809523_);fill:none;stroke:#231F20;stroke-width:0.36;stroke-linecap:round;stroke-linejoin:round;stroke-miterlimit:10;}
	.st7{clip-path:url(#SVGID_00000040558273466840441780000007844473128858809523_);fill:#67B350;}
	
		.st8{clip-path:url(#SVGID_00000040558273466840441780000007844473128858809523_);fill:none;stroke:#231F20;stroke-width:0.482;stroke-linecap:round;stroke-linejoin:round;stroke-miterlimit:10;}
	
		.st9{clip-path:url(#SVGID_00000040558273466840441780000007844473128858809523_);fill:none;stroke:#231F20;stroke-width:0.132;stroke-linecap:round;stroke-linejoin:round;stroke-miterlimit:10;}
	
		.st10{clip-path:url(#SVGID_00000040558273466840441780000007844473128858809523_);fill:none;stroke:#231F20;stroke-width:0.072;stroke-linecap:round;stroke-linejoin:round;stroke-miterlimit:10;}
	.st11{clip-path:url(#SVGID_00000040558273466840441780000007844473128858809523_);fill:#A6CE38;}
</style>
<g>
	<defs>
		<rect id="SVGID_1_" x="0.14" y="0.29" width="126.72" height="206.06"/>
	</defs>
	<clipPath id="SVGID_00000165937200775995839430000006814657704856885897_">
		<use xlink:href="#SVGID_1_"  style="overflow:visible;"/>
	</clipPath>
	<path style="clip-path:url(#SVGID_00000165937200775995839430000006814657704856885897_);fill:#B8BADD;" d="M87.54,190.99h36.53
		V66.39c0-31.4-27.3-56.86-60.97-56.86c-33.67,0-60.97,25.46-60.97,56.86v124.6h36.22"/>
	
		<path style="clip-path:url(#SVGID_00000165937200775995839430000006814657704856885897_);fill:none;stroke:#231F20;stroke-width:2.997;stroke-linecap:round;stroke-linejoin:round;stroke-miterlimit:10;" d="
		M87.54,190.99h36.53V66.39c0-31.4-27.3-56.86-60.97-56.86c-33.67,0-60.97,25.46-60.97,56.86v124.6h36.22"/>
	<path style="clip-path:url(#SVGID_00000165937200775995839430000006814657704856885897_);fill:#FDE0CD;" d="M90.99,195.72
		c0.87,2.49,1.26,3.64,1.26,3.64l-24.83,0.13h-0.01l-8.21,0.05l-27.32,0.15c0.13-0.36,2.5-3.62,2.8-4.03
		c0.02-0.03,0.04-0.06,0.06-0.09c0.23-0.42,1.86-3.43,2.03-3.74c0.01-0.02,0.01-0.03,0.02-0.05c0.11-0.23,0.76-1.69,1.38-3.08
		c0.01-0.02,0.02-0.05,0.03-0.08c0.59-1.32,1.14-2.55,1.14-2.55s0.76-2.68,0.99-3.49c0.02-0.08,0.04-0.15,0.07-0.23
		c0.11-0.41,1.74-7.3,1.92-8.06c0.01-0.06,0.02-0.12,0.03-0.18c0.14-0.91,1.12-7.59,1.13-7.72c0.01-0.13,0.58-8.02,0.64-8.76
		c0-0.03,0-0.07,0-0.11l0.1-3.75l0.07-2.68l0-0.15l-0.08-1.8l-0.02-0.62l-0.04-0.99c0,0,0,0,0-0.01l-0.08-1.81l-0.15-3.71
		l-0.29-5.44c0,0-7.03-3.32-10.48-12.33c-3.45-9.02-6.7-18.54-7.77-24.22c-1.08-5.67-2.38-13.93-1.46-18.42
		c0.92-4.48,2.64-6.6,5.58-7.44c2.92-0.83,6.64,2.11,7.84,4.54c-0.04-0.12-0.31-0.83-0.04-0.92c0.29-0.09-1.63-3.24-1.95-7.05
		C35.05,66.92,34.21,59,39.7,57.28c5.5-1.73,9.16,2.74,10.1,6.32l-0.28-2.56L45.29,40.1l-2.74-13.63c0,0-2.02-11.99-2.04-12.12
		C40.5,14.21,39.32,3.3,43.39,2.6c4.08-0.7,6.65,5.57,7.57,8.26c0.92,2.69,2.59,8,3.53,13.01c0.94,5,2.95,16.42,3.79,21.35
		c0.84,4.93,2.38,9.62,3.57,13.32c1.2,3.7,2.73,6,4.57,6.15c1.84,0.15,4.17-2.63,5.27-6.02c1.1-3.39,3.25-12.22,4.21-18.34
		c0.96-6.11,1.92-14.22,3.22-19.49c1.3-5.26,2.94-14.79,8.91-14c5.98,0.79,4.72,11.39,3.78,15.76c-0.93,4.37-2.17,12.89-3.3,17.78
		c-1.14,4.89-2.7,18.24-3,22.75c-0.31,4.51-0.6,13.23-0.46,19.54c0.14,6.28,1.15,11.43,1.29,11.68c0.08,0.12,0.15,0.25,0.23,0.38
		c0.42,0.7,1.35,2.32,2.16,4.26c0.51,1.23,0.98,2.6,1.24,3.94c0,0,0,0.01,0,0.02c0.1,0.53,0.2,1.03,0.29,1.51
		c0.62,3.24,0.89,5.53-0.05,10.23c0,0,0,0.01,0,0.01c-0.38,1.9-0.61,3.28-0.85,4.51c-0.01,0.02-0.01,0.04-0.01,0.06
		c-0.45,2.22-0.96,4.01-2.53,7.68c-0.02,0.05-0.04,0.11-0.07,0.16c-0.16,0.37-0.31,0.73-0.47,1.08c-0.03,0.08-0.07,0.17-0.11,0.25
		c-0.76,1.77-1.47,3.39-2.07,4.91c-1.17,2.96-1.94,5.54-1.96,8.14v0.03c-0.01,2.08-0.11,4.4-0.15,6.82c-0.02,0.9-0.02,1.8-0.01,2.72
		c0.01,0.71,0.01,1.41,0.04,2.11v0.03c0.03,0.94,0.09,1.87,0.18,2.79c0.01,0.06,0.01,0.12,0.02,0.18
		c0.46,4.84,1.17,10.12,2.16,15.97c0,0.03,0.01,0.06,0.01,0.1c0.84,4.99,1.57,8.76,3.25,13.95c0.32,1,0.69,2.05,1.09,3.17
		c0,0.01,0.01,0.02,0.01,0.04C89.7,192.06,90.44,194.16,90.99,195.72"/>
	
		<path style="clip-path:url(#SVGID_00000165937200775995839430000006814657704856885897_);fill:none;stroke:#231F20;stroke-width:0.72;stroke-linecap:round;stroke-linejoin:round;stroke-miterlimit:10;" d="
		M32.4,199.08c6.79-9.18,11.65-23.73,11.84-46.11c0.04-4.98-0.15-10.43-0.6-16.4"/>
	
		<path style="clip-path:url(#SVGID_00000165937200775995839430000006814657704856885897_);fill:none;stroke:#231F20;stroke-width:0.72;stroke-linecap:round;stroke-linejoin:round;stroke-miterlimit:10;" d="
		M42.41,90.42c2.45,7.73,2.23,12.41-1.43,13.63c-4.82,1.61-6.69-5.67-12.86-19.14"/>
	
		<path style="clip-path:url(#SVGID_00000165937200775995839430000006814657704856885897_);fill:none;stroke:#231F20;stroke-width:0.72;stroke-linecap:round;stroke-linejoin:round;stroke-miterlimit:10;" d="
		M47.14,137.87c-4.57-1.41-8.97-4.34-12.15-9.86c-4.05-7.04-17.89-45.43-7.75-52.76c4.5-3.25,8.24,0.63,10.29,3.7"/>
	
		<path style="clip-path:url(#SVGID_00000165937200775995839430000006814657704856885897_);fill:none;stroke:#231F20;stroke-width:0.72;stroke-linecap:round;stroke-linejoin:round;stroke-miterlimit:10;" d="
		M62.43,138.28c-3.25,0.63-7.45,1.06-11.74,0.4"/>
	
		<path style="clip-path:url(#SVGID_00000165937200775995839430000006814657704856885897_);fill:none;stroke:#231F20;stroke-width:0.72;stroke-linecap:round;stroke-linejoin:round;stroke-miterlimit:10;" d="
		M37.61,78.74c-0.75-2.43-1.25-4.26-1.65-5.72c-1.64-6.04-1.77-15.22,5.42-16.16c7.19-0.94,9.18,9.28,9.18,9.28
		s-6.77-33.37-8.26-40.91c-1.49-7.54-4.43-21.88,1.82-22.62c6.25-0.74,10.3,19.49,11.77,29.05c1.47,9.56,5.4,33.15,10.67,33.02
		c4.89-0.12,7.62-12.04,10.75-33.37C80.44,9.99,83.62,5.99,88.33,6.74c3.18,0.5,4.81,3.81,3.78,13.49
		c-0.39,3.68-1.16,8.29-2.38,14.02c-4.41,20.78-6.33,45.02-3.38,60.1"/>
	
		<path style="clip-path:url(#SVGID_00000165937200775995839430000006814657704856885897_);fill:none;stroke:#231F20;stroke-width:0.72;stroke-linecap:round;stroke-linejoin:round;stroke-miterlimit:10;" d="
		M51.26,92.01c0,3.19-0.77,5.55-3.62,5.31c-1.52-0.13-3.06-1.94-4.52-4.55"/>
	
		<path style="clip-path:url(#SVGID_00000165937200775995839430000006814657704856885897_);fill:none;stroke:#231F20;stroke-width:0.72;stroke-linecap:round;stroke-linejoin:round;stroke-miterlimit:10;" d="
		M47.14,64.21c-0.64,2.21,0.82,8.1,2.14,13.05"/>
	
		<path style="clip-path:url(#SVGID_00000165937200775995839430000006814657704856885897_);fill:none;stroke:#231F20;stroke-width:0.72;stroke-linecap:round;stroke-linejoin:round;stroke-miterlimit:10;" d="
		M81.86,148.18c-0.01-0.91-0.01-1.69,0-2.6c0.07-5.63,1.48-11.14,3.89-16.22c2.43-5.14,5.27-13.19,4.82-22.19
		c-0.89-17.92-21.05-29.05-28.16-29.7c-7.11-0.65-11.66-0.68-22.76,0.88c-7.75,1.09-5.56,10.53,4.6,12.53
		c10.16,2,14.99,1.58,14.99,1.58s3.57,5.04,6.3,7.36"/>
	
		<path style="clip-path:url(#SVGID_00000165937200775995839430000006814657704856885897_);fill:none;stroke:#231F20;stroke-width:0.72;stroke-linecap:round;stroke-linejoin:round;stroke-miterlimit:10;" d="
		M92.42,199.08c-3.95-8.49-9.77-27.78-10.49-48.04"/>
	
		<path style="clip-path:url(#SVGID_00000165937200775995839430000006814657704856885897_);fill:none;stroke:#231F20;stroke-width:0.72;stroke-linecap:round;stroke-linejoin:round;stroke-miterlimit:10;" d="
		M62.43,96.55c-2.61,2.09-6.1,7.48-5.82,14.51"/>
	<path style="clip-path:url(#SVGID_00000165937200775995839430000006814657704856885897_);fill:#231F20;" d="M38.15,94.39
		c-2.94,1.57,0.29,8.09,0.88,9.24c0.71,1.37,2.41,2.99,4.34,2.35c3.28-1.08,0.31-8.83-0.43-10.36
		C41.96,93.56,39.48,93.68,38.15,94.39"/>
	<path style="clip-path:url(#SVGID_00000165937200775995839430000006814657704856885897_);fill:#231F20;" d="M44.63,92
		c0.75,2.33,1.38,5.08,2.51,6.96c0.66,1.09,3.91,0.88,4.11-1.23c0.24-2.43-1-5.85-1-5.85l-5.62-1.05V92z"/>
	<path style="clip-path:url(#SVGID_00000165937200775995839430000006814657704856885897_);fill:#231F20;" d="M46.66,86.4
		c-1.23,1.76-7.98,1.97-11.28,0.44c-1.26-0.59-1.98-3.13-1.81-4.62c0.19-1.74,3.2-2.12,4.61-2.25c1.29-0.12,2.59-0.24,3.89-0.26
		c1.06-0.01,2.58-0.15,3.52,0.42c1.01,0.61,1.32,2.04,1.47,3.12C47.21,84.22,47.26,85.55,46.66,86.4"/>
	<path style="clip-path:url(#SVGID_00000165937200775995839430000006814657704856885897_);fill:#83C455;" d="M35.42,162.42
		c0.36-2.99,4.11-2.73,6.22-3.51c-0.68,1.75-0.49,3.68-1.83,5.22c-0.58,0.67-1.32,1.14-2.15,1.45c-0.36,0.13-0.93,0.42-1.25,0.65"/>
	
		<path style="clip-path:url(#SVGID_00000165937200775995839430000006814657704856885897_);fill:none;stroke:#231F20;stroke-width:0.36;stroke-linecap:round;stroke-linejoin:round;stroke-miterlimit:10;" d="
		M35.42,162.42c0.36-2.99,4.11-2.73,6.22-3.51c-0.68,1.75-0.49,3.68-1.83,5.22c-0.58,0.67-1.32,1.14-2.15,1.45
		c-0.36,0.13-0.93,0.42-1.25,0.65"/>
	<path style="clip-path:url(#SVGID_00000165937200775995839430000006814657704856885897_);fill:#67B350;" d="M36.41,166.23
		c-0.06,0.19-0.14,0.4-0.24,0.64c-0.27-0.06-1.93,0.35-2.91,0.07c-1.08-0.3-2.18-0.79-2.7-1.8c-0.53-1.02-0.58-2.35-0.37-3.47
		c0.16-0.84,0.8-1.98,0.58-2.83c0.32,0.16,0.52,0.45,0.79,0.67c0.42,0.33,0.94,0.58,1.38,0.88c0.91,0.62,1.93,1.41,2.65,2.26
		c0.58,0.68,0.85,1.57,0.93,2.45C36.56,165.4,36.55,165.74,36.41,166.23"/>
	
		<path style="clip-path:url(#SVGID_00000165937200775995839430000006814657704856885897_);fill:none;stroke:#231F20;stroke-width:0.36;stroke-linecap:round;stroke-linejoin:round;stroke-miterlimit:10;" d="
		M36.41,166.23c-0.06,0.19-0.14,0.4-0.24,0.64c-0.27-0.06-1.93,0.35-2.91,0.07c-1.08-0.3-2.18-0.79-2.7-1.8
		c-0.53-1.02-0.58-2.35-0.37-3.47c0.16-0.84,0.8-1.98,0.58-2.83c0.32,0.16,0.52,0.45,0.79,0.67c0.42,0.33,0.94,0.58,1.38,0.88
		c0.91,0.62,1.93,1.41,2.65,2.26c0.58,0.68,0.85,1.57,0.93,2.45C36.56,165.4,36.55,165.74,36.41,166.23z"/>
	<path style="clip-path:url(#SVGID_00000165937200775995839430000006814657704856885897_);fill:#83C455;" d="M36.23,177.4
		c-1.38-0.73-3.29-1.4-4.34-2.66c-0.77-0.91-1.39-2.28-1.47-3.46c-0.07-1.07,0.17-2.24,0.28-3.28c1.77,0.77,3.83,1.41,4.51,3.36
		c0,0.21,0.02,0.49,0.05,0.87c-0.14,0.25-0.25,0.51-0.33,0.78c-0.26,0.9-0.07,1.98,0.33,2.8c0.24,0.5,0.68,1.16,0.93,1.51
		c0,0,0,0,0,0.01C36.22,177.35,36.23,177.37,36.23,177.4"/>
	
		<path style="clip-path:url(#SVGID_00000165937200775995839430000006814657704856885897_);fill:none;stroke:#231F20;stroke-width:0.36;stroke-linecap:round;stroke-linejoin:round;stroke-miterlimit:10;" d="
		M36.23,177.4c-1.38-0.73-3.29-1.4-4.34-2.66c-0.77-0.91-1.39-2.28-1.47-3.46c-0.07-1.07,0.17-2.24,0.28-3.28
		c1.77,0.77,3.83,1.41,4.51,3.36c0,0.21,0.02,0.49,0.05,0.87c-0.14,0.25-0.25,0.51-0.33,0.78c-0.26,0.9-0.07,1.98,0.33,2.8
		c0.24,0.5,0.68,1.16,0.93,1.51c0,0,0,0,0,0.01C36.22,177.35,36.23,177.37,36.23,177.4z"/>
	
		<path style="clip-path:url(#SVGID_00000165937200775995839430000006814657704856885897_);fill:none;stroke:#231F20;stroke-width:0.36;stroke-linecap:round;stroke-linejoin:round;stroke-miterlimit:10;" d="
		M36.28,177.43c-0.02-0.01-0.03-0.02-0.05-0.03"/>
	
		<path style="clip-path:url(#SVGID_00000165937200775995839430000006814657704856885897_);fill:none;stroke:#231F20;stroke-width:0.36;stroke-linecap:round;stroke-linejoin:round;stroke-miterlimit:10;" d="
		M35.24,171.4c0-0.01-0.01-0.03-0.02-0.05"/>
	<path style="clip-path:url(#SVGID_00000165937200775995839430000006814657704856885897_);fill:#83C455;" d="M37.89,154.71
		c0.45-0.67,1.65-1.12,2.42-1.24c0.85-0.12,2.34-0.05,3.07-0.53c-0.43,0.3-0.6,0.92-0.83,1.38c-0.39,0.78-0.9,1.31-1.6,1.87
		c-1.11,0.88-2.91,1.13-3.25,0.55"/>
	
		<path style="clip-path:url(#SVGID_00000165937200775995839430000006814657704856885897_);fill:none;stroke:#231F20;stroke-width:0.36;stroke-linecap:round;stroke-linejoin:round;stroke-miterlimit:10;" d="
		M37.89,154.71c0.45-0.67,1.65-1.12,2.42-1.24c0.85-0.12,2.34-0.05,3.07-0.53c-0.43,0.3-0.6,0.92-0.83,1.38
		c-0.39,0.78-0.9,1.31-1.6,1.87c-1.11,0.88-2.91,1.13-3.25,0.55"/>
	
		<path style="clip-path:url(#SVGID_00000165937200775995839430000006814657704856885897_);fill:none;stroke:#231F20;stroke-width:0.36;stroke-linecap:round;stroke-linejoin:round;stroke-miterlimit:10;" d="
		M32.54,162.7c1.42,1.07,2.6,2.69,3.63,4.17"/>
	<path style="clip-path:url(#SVGID_00000165937200775995839430000006814657704856885897_);fill:#67B350;" d="M37.69,156.75
		c-0.24,0.58-0.68,1.1-1.38,1.55c-0.7-0.2-2.48-1.1-2.88-2.62c-0.28-1.1-0.32-3.27,2.05-5.76C36.77,151.8,38.58,154.61,37.69,156.75
		"/>
	
		<path style="clip-path:url(#SVGID_00000165937200775995839430000006814657704856885897_);fill:none;stroke:#231F20;stroke-width:0.36;stroke-linecap:round;stroke-linejoin:round;stroke-miterlimit:10;" d="
		M37.69,156.75c-0.24,0.58-0.68,1.1-1.38,1.55c-0.7-0.2-2.48-1.1-2.88-2.62c-0.28-1.1-0.32-3.27,2.05-5.76
		C36.77,151.8,38.58,154.61,37.69,156.75z"/>
	
		<path style="clip-path:url(#SVGID_00000165937200775995839430000006814657704856885897_);fill:none;stroke:#231F20;stroke-width:0.36;stroke-linecap:round;stroke-linejoin:round;stroke-miterlimit:10;" d="
		M35.45,154.39c0.03,0.46,0.17,1.44,0.29,1.88c0.17,0.59,0.45,1.35,0.68,1.8"/>
	<path style="clip-path:url(#SVGID_00000165937200775995839430000006814657704856885897_);fill:#67B350;" d="M41.42,171.08
		c-0.02,1.2-0.34,2.39-0.7,3.52c-0.49,1.53-2.76,3.25-4.43,2.82c-0.02-0.03-0.05-0.07-0.08-0.11c-0.01-0.01-0.01-0.01-0.01-0.01
		c-0.25-0.35-0.69-1.01-0.93-1.51c-0.4-0.82-0.6-1.91-0.33-2.8c0.08-0.26,0.19-0.53,0.33-0.78c0.61-1.1,1.72-2.04,2.78-2.54
		c1.1-0.52,2.38-0.44,3.43-1.04C41.31,169.39,41.43,170.3,41.42,171.08"/>
	
		<path style="clip-path:url(#SVGID_00000165937200775995839430000006814657704856885897_);fill:none;stroke:#231F20;stroke-width:0.36;stroke-linecap:round;stroke-linejoin:round;stroke-miterlimit:10;" d="
		M41.42,171.08c-0.02,1.2-0.34,2.39-0.7,3.52c-0.49,1.53-2.76,3.25-4.43,2.82c-0.02-0.03-0.05-0.07-0.08-0.11
		c-0.01-0.01-0.01-0.01-0.01-0.01c-0.25-0.35-0.69-1.01-0.93-1.51c-0.4-0.82-0.6-1.91-0.33-2.8c0.08-0.26,0.19-0.53,0.33-0.78
		c0.61-1.1,1.72-2.04,2.78-2.54c1.1-0.52,2.38-0.44,3.43-1.04C41.31,169.39,41.43,170.3,41.42,171.08z"/>
	
		<path style="clip-path:url(#SVGID_00000165937200775995839430000006814657704856885897_);fill:none;stroke:#231F20;stroke-width:0.36;stroke-linecap:round;stroke-linejoin:round;stroke-miterlimit:10;" d="
		M37.89,154.71c0.66-1.04,2.66-2.53,3.27-3.76"/>
	
		<path style="clip-path:url(#SVGID_00000165937200775995839430000006814657704856885897_);fill:none;stroke:#231F20;stroke-width:0.36;stroke-linecap:round;stroke-linejoin:round;stroke-miterlimit:10;" d="
		M36.31,158.3c-0.1,0.35-1.44,2.58-0.9,4.12"/>
	
		<path style="clip-path:url(#SVGID_00000165937200775995839430000006814657704856885897_);fill:none;stroke:#231F20;stroke-width:0.36;stroke-linecap:round;stroke-linejoin:round;stroke-miterlimit:10;" d="
		M35.22,171.35c0-0.2,0.01-0.35,0.01-0.47c0.02-0.54,0.12-1.04,0.23-1.58c0.2-0.98,0.42-1.49,0.71-2.43"/>
	<path style="clip-path:url(#SVGID_00000165937200775995839430000006814657704856885897_);fill:#83C455;" d="M43.08,149.18
		c0.46-0.35,0.82-0.57,1.39-0.73c0.6-0.17,1.37-0.28,1.84,0.23c0.32,0.35,0.51,0.85,0.32,1.3c-0.22,0.53-0.73,0.79-1.24,0.98
		c-0.63,0.23-1.21,0.12-1.86,0.09c-0.61-0.04-2.07-0.16-2.21-0.13c-0.05,0.01-0.1,0.01-0.15,0.02"/>
	
		<path style="clip-path:url(#SVGID_00000165937200775995839430000006814657704856885897_);fill:none;stroke:#231F20;stroke-width:0.36;stroke-linecap:round;stroke-linejoin:round;stroke-miterlimit:10;" d="
		M43.08,149.18c0.46-0.35,0.82-0.57,1.39-0.73c0.6-0.17,1.37-0.28,1.84,0.23c0.32,0.35,0.51,0.85,0.32,1.3
		c-0.22,0.53-0.73,0.79-1.24,0.98c-0.63,0.23-1.21,0.12-1.86,0.09c-0.61-0.04-2.07-0.16-2.21-0.13c-0.05,0.01-0.1,0.01-0.15,0.02"/>
	
		<path style="clip-path:url(#SVGID_00000165937200775995839430000006814657704856885897_);fill:none;stroke:#231F20;stroke-width:0.36;stroke-linecap:round;stroke-linejoin:round;stroke-miterlimit:10;" d="
		M36.23,177.4c0.29,0.89,0.12,2.64,1.07,5.09c0.56,1.46,1.25,2.58,1.93,3.44c0.03,0.05,0.07,0.09,0.11,0.14
		c1.02,1.26,2.05,1.98,2.68,2.44c7.6,5.42,15.44,6.73,21.34,9.01c1.48,0.57,2.84,1.21,4.04,1.98h0.01c2.13,1.38,3.76,3.19,4.73,5.89
		"/>
	<path style="clip-path:url(#SVGID_00000165937200775995839430000006814657704856885897_);fill:#83C455;" d="M44.17,147.54
		C44.16,147.54,44.17,147.54,44.17,147.54c-0.06,0.17-0.14,0.34-0.23,0.51c-0.24,0.42-0.54,0.79-0.86,1.13
		c-0.6,0.63-1.29,1.17-1.9,1.77l-0.01,0.01c-0.09-0.35-0.25-2.91-0.04-3.7c0.17-0.69,0.47-1.33,0.98-1.79
		c0.86-0.79,1.63-0.48,1.99,0.26L44.17,147.54z"/>
	
		<path style="clip-path:url(#SVGID_00000165937200775995839430000006814657704856885897_);fill:none;stroke:#231F20;stroke-width:0.36;stroke-linecap:round;stroke-linejoin:round;stroke-miterlimit:10;" d="
		M44.17,147.54C44.16,147.54,44.17,147.54,44.17,147.54c-0.06,0.17-0.14,0.34-0.23,0.51c-0.24,0.42-0.54,0.79-0.86,1.13
		c-0.6,0.63-1.29,1.17-1.9,1.77l-0.01,0.01c-0.09-0.35-0.25-2.91-0.04-3.7c0.17-0.69,0.47-1.33,0.98-1.79
		c0.86-0.79,1.63-0.48,1.99,0.26L44.17,147.54z"/>
	
		<path style="clip-path:url(#SVGID_00000165937200775995839430000006814657704856885897_);fill:none;stroke:#231F20;stroke-width:0.36;stroke-linecap:round;stroke-linejoin:round;stroke-miterlimit:10;" d="
		M44.19,147.43c-0.01,0.04-0.02,0.07-0.03,0.11l-0.08-1.81c0.02,0.05,0.05,0.1,0.07,0.15C44.32,146.32,44.36,146.88,44.19,147.43z"
		/>
	<path style="clip-path:url(#SVGID_00000165937200775995839430000006814657704856885897_);fill:#83C455;" d="M29.32,182.17
		c-0.56,0.06-1,0.39-1.44,0.71c-0.62,0.45-1.23,0.87-1.96,1.13c0.52-0.28,1.44,0.7,1.82,0.94c0.83,0.52,1.81,1.09,2.81,1.12
		c0.69,0.02,1.5-0.14,2.1-0.52c1.1-0.69,1.82-2.1,2.06-2.1"/>
	
		<path style="clip-path:url(#SVGID_00000165937200775995839430000006814657704856885897_);fill:none;stroke:#231F20;stroke-width:0.36;stroke-linecap:round;stroke-linejoin:round;stroke-miterlimit:10;" d="
		M29.32,182.17c-0.56,0.06-1,0.39-1.44,0.71c-0.62,0.45-1.23,0.87-1.96,1.13c0.52-0.28,1.44,0.7,1.82,0.94
		c0.83,0.52,1.81,1.09,2.81,1.12c0.69,0.02,1.5-0.14,2.1-0.52c1.1-0.69,1.82-2.1,2.06-2.1"/>
	<path style="clip-path:url(#SVGID_00000165937200775995839430000006814657704856885897_);fill:#67B350;" d="M32.99,177.79
		c-0.82-1.12-2.09-1.49-3.4-1.65c-0.63-0.08-1.26,0.01-1.89-0.13c-0.39-0.09-0.78-0.32-1.15-0.39c0.25,0.21,0.36,0.61,0.46,0.92
		c0.24,0.77,0.43,1.52,0.74,2.27c0.5,1.17,0.82,2.71,1.79,3.59c0.85,0.78,1.41,0.85,2.7,0.92c0.79,0.04,1.58,0.11,2.36,0.04
		c0,0-0.15-2.04-0.29-2.74C34.11,179.65,33.57,178.57,32.99,177.79"/>
	
		<path style="clip-path:url(#SVGID_00000165937200775995839430000006814657704856885897_);fill:none;stroke:#231F20;stroke-width:0.36;stroke-linecap:round;stroke-linejoin:round;stroke-miterlimit:10;" d="
		M32.99,177.79c-0.82-1.12-2.09-1.49-3.4-1.65c-0.63-0.08-1.26,0.01-1.89-0.13c-0.39-0.09-0.78-0.32-1.15-0.39
		c0.25,0.21,0.36,0.61,0.46,0.92c0.24,0.77,0.43,1.52,0.74,2.27c0.5,1.17,0.82,2.71,1.79,3.59c0.85,0.78,1.41,0.85,2.7,0.92
		c0.79,0.04,1.58,0.11,2.36,0.04c0,0-0.15-2.04-0.29-2.74C34.11,179.65,33.57,178.57,32.99,177.79z"/>
	
		<path style="clip-path:url(#SVGID_00000165937200775995839430000006814657704856885897_);fill:none;stroke:#231F20;stroke-width:0.36;stroke-linecap:round;stroke-linejoin:round;stroke-miterlimit:10;" d="
		M34.6,183.35c1.94,1.95,3.75,1.71,4.53,2.45"/>
	
		<path style="clip-path:url(#SVGID_00000165937200775995839430000006814657704856885897_);fill:none;stroke:#231F20;stroke-width:0.36;stroke-linecap:round;stroke-linejoin:round;stroke-miterlimit:10;" d="
		M31.37,180.12c0.94,0.95,1.67,2.24,3.23,3.23"/>
	
		<path style="clip-path:url(#SVGID_00000165937200775995839430000006814657704856885897_);fill:none;stroke:#231F20;stroke-width:0.36;stroke-linecap:round;stroke-linejoin:round;stroke-miterlimit:10;" d="
		M38.34,172.8c-1.04,0.78-3.02,3.21-2.06,4.63"/>
	<path style="clip-path:url(#SVGID_00000165937200775995839430000006814657704856885897_);fill:#83C455;" d="M91.65,162.42
		c-0.36-2.99-4.11-2.73-6.22-3.51c0.68,1.75,0.49,3.68,1.83,5.22c0.58,0.67,1.33,1.14,2.15,1.45c0.36,0.13,0.93,0.42,1.25,0.65"/>
	
		<path style="clip-path:url(#SVGID_00000165937200775995839430000006814657704856885897_);fill:none;stroke:#231F20;stroke-width:0.36;stroke-linecap:round;stroke-linejoin:round;stroke-miterlimit:10;" d="
		M91.65,162.42c-0.36-2.99-4.11-2.73-6.22-3.51c0.68,1.75,0.49,3.68,1.83,5.22c0.58,0.67,1.33,1.14,2.15,1.45
		c0.36,0.13,0.93,0.42,1.25,0.65"/>
	<path style="clip-path:url(#SVGID_00000165937200775995839430000006814657704856885897_);fill:#67B350;" d="M96.51,165.14
		c-0.52,1.01-1.63,1.5-2.7,1.8c-0.99,0.27-2.64-0.13-2.91-0.07c-0.11-0.24-0.18-0.45-0.24-0.64c-0.14-0.48-0.15-0.82-0.12-1.14
		c0.07-0.88,0.35-1.76,0.93-2.45c0.72-0.84,1.75-1.63,2.66-2.26c0.44-0.3,0.97-0.55,1.38-0.88c0.27-0.22,0.47-0.51,0.79-0.67
		c-0.21,0.85,0.43,1.99,0.59,2.83C97.09,162.78,97.04,164.11,96.51,165.14"/>
	
		<path style="clip-path:url(#SVGID_00000165937200775995839430000006814657704856885897_);fill:none;stroke:#231F20;stroke-width:0.36;stroke-linecap:round;stroke-linejoin:round;stroke-miterlimit:10;" d="
		M96.51,165.14c-0.52,1.01-1.63,1.5-2.7,1.8c-0.99,0.27-2.64-0.13-2.91-0.07c-0.11-0.24-0.18-0.45-0.24-0.64
		c-0.14-0.48-0.15-0.82-0.12-1.14c0.07-0.88,0.35-1.76,0.93-2.45c0.72-0.84,1.75-1.63,2.66-2.26c0.44-0.3,0.97-0.55,1.38-0.88
		c0.27-0.22,0.47-0.51,0.79-0.67c-0.21,0.85,0.43,1.99,0.59,2.83C97.09,162.78,97.04,164.11,96.51,165.14z"/>
	<path style="clip-path:url(#SVGID_00000165937200775995839430000006814657704856885897_);fill:#83C455;" d="M96.64,171.27
		c-0.07,1.19-0.7,2.55-1.47,3.46c-1.06,1.26-2.96,1.93-4.34,2.66c0-0.03,0.01-0.05,0.03-0.08v-0.01c0.25-0.35,0.68-1.01,0.93-1.51
		c0.4-0.82,0.6-1.91,0.33-2.8c-0.08-0.26-0.19-0.53-0.33-0.78v0c0.04-0.38,0.05-0.65,0.05-0.86v-0.01c0.69-1.94,2.74-2.59,4.51-3.36
		C96.47,169.03,96.7,170.21,96.64,171.27"/>
	
		<path style="clip-path:url(#SVGID_00000165937200775995839430000006814657704856885897_);fill:none;stroke:#231F20;stroke-width:0.36;stroke-linecap:round;stroke-linejoin:round;stroke-miterlimit:10;" d="
		M96.64,171.27c-0.07,1.19-0.7,2.55-1.47,3.46c-1.06,1.26-2.96,1.93-4.34,2.66c0-0.03,0.01-0.05,0.03-0.08v-0.01
		c0.25-0.35,0.68-1.01,0.93-1.51c0.4-0.82,0.6-1.91,0.33-2.8c-0.08-0.26-0.19-0.53-0.33-0.78v0c0.04-0.38,0.05-0.65,0.05-0.86v-0.01
		c0.69-1.94,2.74-2.59,4.51-3.36C96.47,169.03,96.7,170.21,96.64,171.27z"/>
	
		<path style="clip-path:url(#SVGID_00000165937200775995839430000006814657704856885897_);fill:none;stroke:#231F20;stroke-width:0.36;stroke-linecap:round;stroke-linejoin:round;stroke-miterlimit:10;" d="
		M90.84,177.4c-0.02,0.01-0.03,0.02-0.05,0.03"/>
	
		<path style="clip-path:url(#SVGID_00000165937200775995839430000006814657704856885897_);fill:none;stroke:#231F20;stroke-width:0.36;stroke-linecap:round;stroke-linejoin:round;stroke-miterlimit:10;" d="
		M91.85,171.36c-0.01,0.01-0.01,0.03-0.02,0.04"/>
	<path style="clip-path:url(#SVGID_00000165937200775995839430000006814657704856885897_);fill:#83C455;" d="M89.17,154.71
		c-0.45-0.67-1.65-1.12-2.41-1.24c-0.85-0.12-2.34-0.05-3.07-0.53c0.43,0.3,0.6,0.92,0.83,1.38c0.39,0.78,0.9,1.31,1.61,1.87
		c1.11,0.88,2.91,1.13,3.25,0.55"/>
	
		<path style="clip-path:url(#SVGID_00000165937200775995839430000006814657704856885897_);fill:none;stroke:#231F20;stroke-width:0.36;stroke-linecap:round;stroke-linejoin:round;stroke-miterlimit:10;" d="
		M89.17,154.71c-0.45-0.67-1.65-1.12-2.41-1.24c-0.85-0.12-2.34-0.05-3.07-0.53c0.43,0.3,0.6,0.92,0.83,1.38
		c0.39,0.78,0.9,1.31,1.61,1.87c1.11,0.88,2.91,1.13,3.25,0.55"/>
	
		<path style="clip-path:url(#SVGID_00000165937200775995839430000006814657704856885897_);fill:none;stroke:#231F20;stroke-width:0.36;stroke-linecap:round;stroke-linejoin:round;stroke-miterlimit:10;" d="
		M94.52,162.7c-1.42,1.07-2.6,2.69-3.63,4.17"/>
	<path style="clip-path:url(#SVGID_00000165937200775995839430000006814657704856885897_);fill:#67B350;" d="M93.63,155.68
		c-0.4,1.52-2.18,2.42-2.88,2.62c-0.7-0.45-1.14-0.97-1.38-1.55c-0.89-2.14,0.93-4.95,2.21-6.83
		C93.95,152.41,93.92,154.58,93.63,155.68"/>
	
		<path style="clip-path:url(#SVGID_00000165937200775995839430000006814657704856885897_);fill:none;stroke:#231F20;stroke-width:0.36;stroke-linecap:round;stroke-linejoin:round;stroke-miterlimit:10;" d="
		M93.63,155.68c-0.4,1.52-2.18,2.42-2.88,2.62c-0.7-0.45-1.14-0.97-1.38-1.55c-0.89-2.14,0.93-4.95,2.21-6.83
		C93.95,152.41,93.92,154.58,93.63,155.68z"/>
	
		<path style="clip-path:url(#SVGID_00000165937200775995839430000006814657704856885897_);fill:none;stroke:#231F20;stroke-width:0.36;stroke-linecap:round;stroke-linejoin:round;stroke-miterlimit:10;" d="
		M91.61,154.39c-0.03,0.46-0.17,1.44-0.29,1.88c-0.16,0.59-0.45,1.35-0.68,1.8"/>
	
		<path style="clip-path:url(#SVGID_00000165937200775995839430000006814657704856885897_);fill:none;stroke:#231F20;stroke-width:0.36;stroke-linecap:round;stroke-linejoin:round;stroke-miterlimit:10;" d="
		M85.9,150.95c0.61,1.23,2.61,2.72,3.27,3.76"/>
	
		<path style="clip-path:url(#SVGID_00000165937200775995839430000006814657704856885897_);fill:none;stroke:#231F20;stroke-width:0.36;stroke-linecap:round;stroke-linejoin:round;stroke-miterlimit:10;" d="
		M90.75,158.3c0.1,0.35,1.44,2.58,0.9,4.12"/>
	
		<path style="clip-path:url(#SVGID_00000165937200775995839430000006814657704856885897_);fill:none;stroke:#231F20;stroke-width:0.36;stroke-linecap:round;stroke-linejoin:round;stroke-miterlimit:10;" d="
		M90.9,166.87c0.29,0.95,0.51,1.45,0.71,2.43c0.11,0.54,0.21,1.04,0.23,1.58c0.01,0.12,0.01,0.27,0.01,0.47"/>
	<path style="clip-path:url(#SVGID_00000165937200775995839430000006814657704856885897_);fill:#67B350;" d="M91.79,175.8
		c-0.24,0.5-0.68,1.16-0.93,1.51v0.01c-0.03,0.04-0.06,0.08-0.08,0.11c-1.68,0.42-3.95-1.29-4.44-2.82
		c-0.36-1.13-0.68-2.32-0.71-3.52c-0.01-0.79,0.11-1.69-0.06-2.45c1.05,0.6,2.33,0.53,3.43,1.04c1.06,0.5,2.18,1.44,2.78,2.54v0.01
		c0.14,0.25,0.25,0.51,0.33,0.78C92.39,173.9,92.19,174.98,91.79,175.8"/>
	
		<path style="clip-path:url(#SVGID_00000165937200775995839430000006814657704856885897_);fill:none;stroke:#231F20;stroke-width:0.36;stroke-linecap:round;stroke-linejoin:round;stroke-miterlimit:10;" d="
		M91.79,175.8c-0.24,0.5-0.68,1.16-0.93,1.51v0.01c-0.03,0.04-0.06,0.08-0.08,0.11c-1.68,0.42-3.95-1.29-4.44-2.82
		c-0.36-1.13-0.68-2.32-0.71-3.52c-0.01-0.79,0.11-1.69-0.06-2.45c1.05,0.6,2.33,0.53,3.43,1.04c1.06,0.5,2.18,1.44,2.78,2.54v0.01
		c0.14,0.25,0.25,0.51,0.33,0.78C92.39,173.9,92.19,174.98,91.79,175.8z"/>
	<path style="clip-path:url(#SVGID_00000165937200775995839430000006814657704856885897_);fill:#67B350;" d="M85.89,150.94
		c-0.04-0.01-0.1-0.01-0.14-0.02c-0.15-0.03-1.61,0.09-2.21,0.12c-0.54,0.03-1.04,0.11-1.55-0.01c-0.02,0-0.04-0.01-0.05-0.01
		c-0.08-0.02-0.16-0.04-0.25-0.07c-0.51-0.19-1.02-0.45-1.24-0.98c-0.19-0.45-0.01-0.95,0.32-1.3c0.32-0.35,0.78-0.41,1.24-0.35
		c0.21,0.02,0.42,0.07,0.6,0.12c0.57,0.16,0.93,0.37,1.39,0.73"/>
	
		<path style="clip-path:url(#SVGID_00000165937200775995839430000006814657704856885897_);fill:none;stroke:#231F20;stroke-width:0.36;stroke-linecap:round;stroke-linejoin:round;stroke-miterlimit:10;" d="
		M85.89,150.94c-0.04-0.01-0.1-0.01-0.14-0.02c-0.15-0.03-1.61,0.09-2.21,0.12c-0.54,0.03-1.04,0.11-1.55-0.01
		c-0.02,0-0.04-0.01-0.05-0.01c-0.08-0.02-0.16-0.04-0.25-0.07c-0.51-0.19-1.02-0.45-1.24-0.98c-0.19-0.45-0.01-0.95,0.32-1.3
		c0.32-0.35,0.78-0.41,1.24-0.35c0.21,0.02,0.42,0.07,0.6,0.12c0.57,0.16,0.93,0.37,1.39,0.73"/>
	
		<path style="clip-path:url(#SVGID_00000165937200775995839430000006814657704856885897_);fill:none;stroke:#231F20;stroke-width:0.36;stroke-linecap:round;stroke-linejoin:round;stroke-miterlimit:10;" d="
		M90.84,177.4c-0.3,0.89-0.12,2.64-1.07,5.09c-0.54,1.39-1.16,2.46-1.8,3.29c-0.08,0.11-0.16,0.2-0.24,0.3
		c-0.03,0.03-0.06,0.07-0.09,0.1c-0.97,1.16-1.96,1.83-2.74,2.33"/>
	<path style="clip-path:url(#SVGID_00000165937200775995839430000006814657704856885897_);fill:#67B350;" d="M85.9,150.94
		L85.9,150.94c-0.62-0.59-1.31-1.13-1.91-1.77c-0.32-0.34-0.62-0.71-0.86-1.13c-1.02-1.78,0.27-4.03,1.84-2.58
		c0.5,0.46,0.8,1.1,0.97,1.79C86.14,148.04,85.99,150.56,85.9,150.94"/>
	
		<path style="clip-path:url(#SVGID_00000165937200775995839430000006814657704856885897_);fill:none;stroke:#231F20;stroke-width:0.36;stroke-linecap:round;stroke-linejoin:round;stroke-miterlimit:10;" d="
		M85.9,150.94L85.9,150.94c-0.62-0.59-1.31-1.13-1.91-1.77c-0.32-0.34-0.62-0.71-0.86-1.13c-1.02-1.78,0.27-4.03,1.84-2.58
		c0.5,0.46,0.8,1.1,0.97,1.79C86.14,148.04,85.99,150.56,85.9,150.94z"/>
	<path style="clip-path:url(#SVGID_00000165937200775995839430000006814657704856885897_);fill:#83C455;" d="M97.75,182.17
		c0.56,0.06,1,0.39,1.44,0.71c0.62,0.45,1.23,0.87,1.96,1.13c-0.52-0.28-1.44,0.7-1.83,0.94c-0.83,0.52-1.81,1.09-2.81,1.12
		c-0.69,0.02-1.5-0.14-2.1-0.52c-1.1-0.69-1.82-2.1-2.06-2.1"/>
	
		<path style="clip-path:url(#SVGID_00000165937200775995839430000006814657704856885897_);fill:none;stroke:#231F20;stroke-width:0.36;stroke-linecap:round;stroke-linejoin:round;stroke-miterlimit:10;" d="
		M97.75,182.17c0.56,0.06,1,0.39,1.44,0.71c0.62,0.45,1.23,0.87,1.96,1.13c-0.52-0.28-1.44,0.7-1.83,0.94
		c-0.83,0.52-1.81,1.09-2.81,1.12c-0.69,0.02-1.5-0.14-2.1-0.52c-1.1-0.69-1.82-2.1-2.06-2.1"/>
	
		<polygon style="clip-path:url(#SVGID_00000165937200775995839430000006814657704856885897_);fill:none;stroke:#231F20;stroke-width:0.36;stroke-linecap:round;stroke-linejoin:round;stroke-miterlimit:10;" points="
		85.9,150.94 85.9,150.95 85.89,150.94 	"/>
	<path style="clip-path:url(#SVGID_00000165937200775995839430000006814657704856885897_);fill:#67B350;" d="M94.08,177.79
		c0.82-1.12,2.09-1.49,3.4-1.65c0.63-0.08,1.26,0.01,1.89-0.13c0.39-0.09,0.78-0.32,1.15-0.39c-0.25,0.21-0.36,0.61-0.46,0.92
		c-0.24,0.77-0.43,1.52-0.74,2.27c-0.5,1.17-0.82,2.71-1.79,3.59c-0.85,0.78-1.41,0.85-2.7,0.92c-0.79,0.04-1.58,0.11-2.36,0.04
		c0,0,0.15-2.04,0.29-2.74C92.95,179.65,93.5,178.57,94.08,177.79"/>
	
		<path style="clip-path:url(#SVGID_00000165937200775995839430000006814657704856885897_);fill:none;stroke:#231F20;stroke-width:0.36;stroke-linecap:round;stroke-linejoin:round;stroke-miterlimit:10;" d="
		M94.08,177.79c0.82-1.12,2.09-1.49,3.4-1.65c0.63-0.08,1.26,0.01,1.89-0.13c0.39-0.09,0.78-0.32,1.15-0.39
		c-0.25,0.21-0.36,0.61-0.46,0.92c-0.24,0.77-0.43,1.52-0.74,2.27c-0.5,1.17-0.82,2.71-1.79,3.59c-0.85,0.78-1.41,0.85-2.7,0.92
		c-0.79,0.04-1.58,0.11-2.36,0.04c0,0,0.15-2.04,0.29-2.74C92.95,179.65,93.5,178.57,94.08,177.79z"/>
	
		<path style="clip-path:url(#SVGID_00000165937200775995839430000006814657704856885897_);fill:none;stroke:#231F20;stroke-width:0.36;stroke-linecap:round;stroke-linejoin:round;stroke-miterlimit:10;" d="
		M92.47,183.35c-1.94,1.95-3.75,1.71-4.53,2.45"/>
	
		<path style="clip-path:url(#SVGID_00000165937200775995839430000006814657704856885897_);fill:none;stroke:#231F20;stroke-width:0.36;stroke-linecap:round;stroke-linejoin:round;stroke-miterlimit:10;" d="
		M95.7,180.12c-0.94,0.95-1.67,2.24-3.23,3.23"/>
	
		<path style="clip-path:url(#SVGID_00000165937200775995839430000006814657704856885897_);fill:none;stroke:#231F20;stroke-width:0.36;stroke-linecap:round;stroke-linejoin:round;stroke-miterlimit:10;" d="
		M88.73,172.8c1.04,0.78,3.02,3.21,2.06,4.63"/>
	<path style="clip-path:url(#SVGID_00000165937200775995839430000006814657704856885897_);fill:#231F20;" d="M85.64,6.89
		c-0.16,0.02,0.46-2.14,1.5-2.47c1.57-0.5,3.87,0.26,4.01,1.54c0.13,1.28,0.09,2.22,0.09,2.22S89.52,6.32,85.64,6.89"/>
	<path style="clip-path:url(#SVGID_00000165937200775995839430000006814657704856885897_);fill:#231F20;" d="M41.42,4.59
		c-0.09,0.13-0.65-2.57,0.21-3.23c1.31-1,3.73-1.08,4.29,0.08c0.56,1.16,0.84,2.06,0.84,2.06S43.6,1.51,41.42,4.59"/>
	<path style="clip-path:url(#SVGID_00000165937200775995839430000006814657704856885897_);fill:#231F20;" d="M22.68,48.2
		c0,0.57-0.46,1.02-1.03,1.02s-1.03-0.46-1.03-1.02s0.46-1.02,1.03-1.02S22.68,47.63,22.68,48.2"/>
	
		<path style="clip-path:url(#SVGID_00000165937200775995839430000006814657704856885897_);fill:none;stroke:#231F20;stroke-width:0.36;stroke-linecap:round;stroke-linejoin:round;stroke-miterlimit:10;" d="
		M19.61,137.35c0-5.22,5.16-5.89,5.16-5.89c-4.36,0-5.16-6.45-5.16-6.45s-0.79,6.45-5.16,6.45
		C14.46,131.46,19.61,132.12,19.61,137.35z"/>
	<path style="clip-path:url(#SVGID_00000165937200775995839430000006814657704856885897_);fill:#231F20;" d="M24.77,140.22
		c0-2.44,2.41-2.75,2.41-2.75c-2.04,0-2.41-3.01-2.41-3.01s-0.37,3.01-2.41,3.01C22.36,137.48,24.77,137.79,24.77,140.22"/>
	<path style="clip-path:url(#SVGID_00000165937200775995839430000006814657704856885897_);fill:#231F20;" d="M24.77,128.02
		c0,0.4-0.32,0.73-0.72,0.73s-0.72-0.33-0.72-0.73c0-0.4,0.32-0.72,0.72-0.72S24.77,127.62,24.77,128.02"/>
	<path style="clip-path:url(#SVGID_00000165937200775995839430000006814657704856885897_);fill:#231F20;" d="M27.28,133.81
		c0,0.23-0.18,0.41-0.41,0.41c-0.23,0-0.41-0.18-0.41-0.41s0.19-0.41,0.41-0.41C27.1,133.39,27.28,133.58,27.28,133.81"/>
	<path style="clip-path:url(#SVGID_00000165937200775995839430000006814657704856885897_);fill:#231F20;" d="M26.9,50.86
		c0,0.23-0.18,0.41-0.41,0.41c-0.23,0-0.41-0.18-0.41-0.41s0.19-0.41,0.41-0.41C26.71,50.45,26.9,50.63,26.9,50.86"/>
	<path style="clip-path:url(#SVGID_00000165937200775995839430000006814657704856885897_);fill:#231F20;" d="M20.09,54.17
		c0-0.43,0.35-0.78,0.78-0.78s0.78,0.35,0.78,0.78s-0.35,0.78-0.78,0.78S20.09,54.6,20.09,54.17"/>
	<path style="clip-path:url(#SVGID_00000165937200775995839430000006814657704856885897_);fill:#231F20;" d="M99.9,72.18
		c0-5.22,5.16-5.89,5.16-5.89c-4.36,0-5.16-6.45-5.16-6.45s-0.79,6.45-5.16,6.45C94.74,66.29,99.9,66.96,99.9,72.18"/>
	
		<path style="clip-path:url(#SVGID_00000165937200775995839430000006814657704856885897_);fill:none;stroke:#231F20;stroke-width:0.482;stroke-linecap:round;stroke-linejoin:round;stroke-miterlimit:10;" d="
		M99.9,72.18c0-5.22,5.16-5.89,5.16-5.89c-4.36,0-5.16-6.45-5.16-6.45s-0.79,6.45-5.16,6.45C94.74,66.29,99.9,66.96,99.9,72.18z"/>
	<path style="clip-path:url(#SVGID_00000165937200775995839430000006814657704856885897_);fill:#231F20;" d="M71.35,228.09
		c0-1.43,1.41-1.6,1.41-1.6c-1.19,0-1.41-1.76-1.41-1.76s-0.22,1.76-1.41,1.76C69.95,226.49,71.35,226.67,71.35,228.09"/>
	
		<path style="clip-path:url(#SVGID_00000165937200775995839430000006814657704856885897_);fill:none;stroke:#231F20;stroke-width:0.132;stroke-linecap:round;stroke-linejoin:round;stroke-miterlimit:10;" d="
		M71.35,228.09c0-1.43,1.41-1.6,1.41-1.6c-1.19,0-1.41-1.76-1.41-1.76s-0.22,1.76-1.41,1.76C69.95,226.49,71.35,226.67,71.35,228.09
		z"/>
	<path style="clip-path:url(#SVGID_00000165937200775995839430000006814657704856885897_);fill:#231F20;" d="M74.65,226.95
		c0-0.78,0.77-0.88,0.77-0.88c-0.65,0-0.77-0.97-0.77-0.97s-0.12,0.97-0.77,0.97C73.88,226.07,74.65,226.17,74.65,226.95"/>
	
		<path style="clip-path:url(#SVGID_00000165937200775995839430000006814657704856885897_);fill:none;stroke:#231F20;stroke-width:0.072;stroke-linecap:round;stroke-linejoin:round;stroke-miterlimit:10;" d="
		M74.65,226.95c0-0.78,0.77-0.88,0.77-0.88c-0.65,0-0.77-0.97-0.77-0.97s-0.12,0.97-0.77,0.97
		C73.88,226.07,74.65,226.17,74.65,226.95z"/>
	
		<path style="clip-path:url(#SVGID_00000165937200775995839430000006814657704856885897_);fill:none;stroke:#231F20;stroke-width:0.072;stroke-linecap:round;stroke-linejoin:round;stroke-miterlimit:10;" d="
		M73.36,229.68c0-0.78,0.77-0.88,0.77-0.88c-0.65,0-0.77-0.97-0.77-0.97s-0.12,0.97-0.77,0.97
		C72.58,228.79,73.36,228.89,73.36,229.68z"/>
	
		<path style="clip-path:url(#SVGID_00000165937200775995839430000006814657704856885897_);fill:none;stroke:#231F20;stroke-width:0.36;stroke-linecap:round;stroke-linejoin:round;stroke-miterlimit:10;" d="
		M94.74,63.59c0-2.44,2.41-2.75,2.41-2.75c-2.04,0-2.41-3.01-2.41-3.01s-0.37,3.01-2.41,3.01C92.33,60.84,94.74,61.15,94.74,63.59z"
		/>
	<path style="clip-path:url(#SVGID_00000165937200775995839430000006814657704856885897_);fill:#231F20;" d="M107.96,62.86
		c0,0.4-0.32,0.73-0.73,0.73c-0.4,0-0.72-0.33-0.72-0.73s0.32-0.73,0.72-0.73C107.64,62.14,107.96,62.46,107.96,62.86"/>
	<path style="clip-path:url(#SVGID_00000165937200775995839430000006814657704856885897_);fill:#231F20;" d="M107.22,72.18
		c0,0.23-0.18,0.41-0.41,0.41s-0.41-0.18-0.41-0.41s0.18-0.41,0.41-0.41S107.22,71.95,107.22,72.18"/>
	<path style="clip-path:url(#SVGID_00000165937200775995839430000006814657704856885897_);fill:#231F20;" d="M97.17,71.18
		c0,0.56-0.45,1.01-1.01,1.01c-0.56,0-1.01-0.45-1.01-1.01s0.45-1.01,1.01-1.01C96.71,70.17,97.17,70.62,97.17,71.18"/>
	
		<path style="clip-path:url(#SVGID_00000165937200775995839430000006814657704856885897_);fill:none;stroke:#231F20;stroke-width:0.36;stroke-linecap:round;stroke-linejoin:round;stroke-miterlimit:10;" d="
		M84.9,188.51c-12.86,9.18-26.73,6.56-30.42,16.88"/>
	
		<path style="clip-path:url(#SVGID_00000165937200775995839430000006814657704856885897_);fill:none;stroke:#231F20;stroke-width:0.36;stroke-linecap:round;stroke-linejoin:round;stroke-miterlimit:10;" d="
		M101.1,171.6c1.61-2.82,3.51-5.33,5.7-7.08"/>
	
		<path style="clip-path:url(#SVGID_00000165937200775995839430000006814657704856885897_);fill:none;stroke:#231F20;stroke-width:0.36;stroke-linecap:round;stroke-linejoin:round;stroke-miterlimit:10;" d="
		M101.1,171.62c-0.82,1.42-1.56,2.91-2.23,4.44"/>
	<path style="clip-path:url(#SVGID_00000165937200775995839430000006814657704856885897_);fill:#A6CE38;" d="M101.1,171.6
		c0,0.01-0.01,0.01-0.01,0.01c0,0-4.34-6.72-1.64-14.03C99.45,157.59,103.75,165.11,101.1,171.6"/>
	
		<path style="clip-path:url(#SVGID_00000165937200775995839430000006814657704856885897_);fill:none;stroke:#231F20;stroke-width:0.36;stroke-linecap:round;stroke-linejoin:round;stroke-miterlimit:10;" d="
		M101.1,171.6c0,0.01-0.01,0.01-0.01,0.01c0,0-4.34-6.72-1.64-14.03C99.45,157.59,103.75,165.11,101.1,171.6z"/>
	<path style="clip-path:url(#SVGID_00000165937200775995839430000006814657704856885897_);fill:#A6CE38;" d="M113.59,169.8
		c0,0-6.74,5.47-13.58,3.89C100.01,173.69,105.95,168.33,113.59,169.8"/>
	
		<path style="clip-path:url(#SVGID_00000165937200775995839430000006814657704856885897_);fill:none;stroke:#231F20;stroke-width:0.36;stroke-linecap:round;stroke-linejoin:round;stroke-miterlimit:10;" d="
		M113.59,169.8c0,0-6.74,5.47-13.58,3.89C100.01,173.69,105.95,168.33,113.59,169.8z"/>
	<path style="clip-path:url(#SVGID_00000165937200775995839430000006814657704856885897_);fill:#A6CE38;" d="M113.09,165.26
		c0,0-4.71,3.92-9.55,2.88C103.54,168.14,107.67,164.29,113.09,165.26"/>
	
		<path style="clip-path:url(#SVGID_00000165937200775995839430000006814657704856885897_);fill:none;stroke:#231F20;stroke-width:0.36;stroke-linecap:round;stroke-linejoin:round;stroke-miterlimit:10;" d="
		M113.09,165.26c0,0-4.71,3.92-9.55,2.88C103.54,168.14,107.67,164.29,113.09,165.26z"/>
	<path style="clip-path:url(#SVGID_00000165937200775995839430000006814657704856885897_);fill:#A6CE38;" d="M104.84,166.22
		c0,0-2.19-5.21,0.58-9.96C105.42,156.26,107.48,162.03,104.84,166.22"/>
	
		<path style="clip-path:url(#SVGID_00000165937200775995839430000006814657704856885897_);fill:none;stroke:#231F20;stroke-width:0.36;stroke-linecap:round;stroke-linejoin:round;stroke-miterlimit:10;" d="
		M104.84,166.22c0,0-2.19-5.21,0.58-9.96C105.42,156.26,107.48,162.03,104.84,166.22z"/>
	
		<path style="clip-path:url(#SVGID_00000165937200775995839430000006814657704856885897_);fill:none;stroke:#231F20;stroke-width:0.36;stroke-linecap:round;stroke-linejoin:round;stroke-miterlimit:10;" d="
		M92.71,190.99c0,0,0.2-2.9,1.25-5.61"/>
	
		<path style="clip-path:url(#SVGID_00000165937200775995839430000006814657704856885897_);fill:none;stroke:#231F20;stroke-width:0.36;stroke-linecap:round;stroke-linejoin:round;stroke-miterlimit:10;" d="
		M27.88,176.06c-2.01-4.55-4.63-8.9-7.93-11.53"/>
	<path style="clip-path:url(#SVGID_00000165937200775995839430000006814657704856885897_);fill:#A6CE38;" d="M25.66,171.62
		c-2.66-6.49,1.64-14.03,1.64-14.03C29.99,164.89,25.66,171.62,25.66,171.62"/>
	
		<path style="clip-path:url(#SVGID_00000165937200775995839430000006814657704856885897_);fill:none;stroke:#231F20;stroke-width:0.36;stroke-linecap:round;stroke-linejoin:round;stroke-miterlimit:10;" d="
		M25.66,171.62c-2.66-6.49,1.64-14.03,1.64-14.03C29.99,164.89,25.66,171.62,25.66,171.62z"/>
	<path style="clip-path:url(#SVGID_00000165937200775995839430000006814657704856885897_);fill:#A6CE38;" d="M26.74,173.69
		c-6.84,1.57-13.58-3.89-13.58-3.89C20.8,168.33,26.74,173.69,26.74,173.69"/>
	
		<path style="clip-path:url(#SVGID_00000165937200775995839430000006814657704856885897_);fill:none;stroke:#231F20;stroke-width:0.36;stroke-linecap:round;stroke-linejoin:round;stroke-miterlimit:10;" d="
		M26.74,173.69c-6.84,1.57-13.58-3.89-13.58-3.89C20.8,168.33,26.74,173.69,26.74,173.69z"/>
	<path style="clip-path:url(#SVGID_00000165937200775995839430000006814657704856885897_);fill:#A6CE38;" d="M23.21,168.14
		c-4.84,1.05-9.55-2.88-9.55-2.88C19.08,164.29,23.21,168.14,23.21,168.14"/>
	
		<path style="clip-path:url(#SVGID_00000165937200775995839430000006814657704856885897_);fill:none;stroke:#231F20;stroke-width:0.36;stroke-linecap:round;stroke-linejoin:round;stroke-miterlimit:10;" d="
		M23.21,168.14c-4.84,1.05-9.55-2.88-9.55-2.88C19.08,164.29,23.21,168.14,23.21,168.14z"/>
	<path style="clip-path:url(#SVGID_00000165937200775995839430000006814657704856885897_);fill:#A6CE38;" d="M21.91,166.22
		c-2.64-4.19-0.58-9.96-0.58-9.96C24.1,161.01,21.91,166.22,21.91,166.22"/>
	
		<path style="clip-path:url(#SVGID_00000165937200775995839430000006814657704856885897_);fill:none;stroke:#231F20;stroke-width:0.36;stroke-linecap:round;stroke-linejoin:round;stroke-miterlimit:10;" d="
		M21.91,166.22c-2.64-4.19-0.58-9.96-0.58-9.96C24.1,161.01,21.91,166.22,21.91,166.22z"/>
	
		<path style="clip-path:url(#SVGID_00000165937200775995839430000006814657704856885897_);fill:none;stroke:#231F20;stroke-width:0.36;stroke-linecap:round;stroke-linejoin:round;stroke-miterlimit:10;" d="
		M34.04,190.99c0,0-0.19-2.9-1.25-5.61"/>
	<path style="clip-path:url(#SVGID_00000165937200775995839430000006814657704856885897_);fill:#231F20;" d="M75.54,93.37
		c0.42-1.49,0.03-3.01-0.9-4.11c-0.55-0.65-1.3-1.15-2.18-1.39c-0.31-0.09-0.61-0.14-0.91-0.16c1.83,0.96,2.8,3.09,2.22,5.16
		c-0.58,2.07-2.53,3.38-4.59,3.24c0.27,0.14,0.56,0.26,0.86,0.34c0.51,0.15,1.03,0.19,1.54,0.16
		C73.39,96.47,75.01,95.23,75.54,93.37"/>
	
		<path style="clip-path:url(#SVGID_00000165937200775995839430000006814657704856885897_);fill:none;stroke:#231F20;stroke-width:0.36;stroke-linecap:round;stroke-linejoin:round;stroke-miterlimit:10;" d="
		M63.74,162.06c1.65,0,2.59,1.08,2.59,2.41c0,1.56-1.27,2.83-2.83,2.83c-1.84,0-3.33-1.49-3.33-3.33c0-2.17,1.76-3.92,3.92-3.92
		c2.55,0,4.61,2.07,4.61,4.61c0,3-2.43,5.43-5.43,5.43c-3.53,0-6.38-2.86-6.38-6.38c0-4.15,3.36-7.51,7.51-7.51
		c4.88,0,8.3,3.83,8.3,8.71c0,5.2-3.75,9.07-9.49,9.07c-4.74,0-10.03-3.44-10.03-10.78c0-7.28,5.55-11.4,10.49-12.04"/>
	
		<polyline style="clip-path:url(#SVGID_00000165937200775995839430000006814657704856885897_);fill:none;stroke:#231F20;stroke-width:0.36;stroke-linecap:round;stroke-linejoin:round;stroke-miterlimit:10;" points="
		63.65,151.15 63.65,151.15 63.65,179.27 72.69,179.27 	"/>
	<path style="clip-path:url(#SVGID_00000165937200775995839430000006814657704856885897_);fill:#67B350;" d="M41.42,150.71
		c0,0,1.44-0.79,2.88-0.81"/>
	
		<path style="clip-path:url(#SVGID_00000165937200775995839430000006814657704856885897_);fill:none;stroke:#231F20;stroke-width:0.36;stroke-linecap:round;stroke-linejoin:round;stroke-miterlimit:10;" d="
		M41.42,150.71c0,0,1.44-0.79,2.88-0.81"/>
	<path style="clip-path:url(#SVGID_00000165937200775995839430000006814657704856885897_);fill:#67B350;" d="M85.5,150.71
		c0,0-1.44-0.79-2.88-0.81"/>
	
		<path style="clip-path:url(#SVGID_00000165937200775995839430000006814657704856885897_);fill:none;stroke:#231F20;stroke-width:0.36;stroke-linecap:round;stroke-linejoin:round;stroke-miterlimit:10;" d="
		M85.5,150.71c0,0-1.44-0.79-2.88-0.81"/>
</g>
</svg>
